<?xml version="1.0" encoding="UTF-8" standalone="no"?><svg xmlns="http://www.w3.org/2000/svg" xmlns:xlink="http://www.w3.org/1999/xlink" contentScriptType="application/ecmascript" contentStyleType="text/css" height="1081.25px" preserveAspectRatio="none" style="width:1176px;height:1081px;" version="1.1" viewBox="0 0 1176 1081" width="1176.25px" zoomAndPan="magnify"><defs><filter height="300%" id="f15rxbi3swpcpe" width="300%" x="-1" y="-1"><feGaussianBlur result="blurOut" stdDeviation="2.5"/><feColorMatrix in="blurOut" result="blurOut2" type="matrix" values="0 0 0 0 0 0 0 0 0 0 0 0 0 0 0 0 0 0 .4 0"/><feOffset dx="5.0" dy="5.0" in="blurOut2" result="blurOut3"/><feBlend in="SourceGraphic" in2="blurOut3" mode="normal"/></filter></defs><g><!--MD5=[10ea673caf457862023e152271927b45]
cluster controller--><polygon fill="#FFFFFF" filter="url(#f15rxbi3swpcpe)" points="160.6125,103.125,254.3625,103.125,263.1125,132.6367,944.3625,132.6367,944.3625,872.5,160.6125,872.5,160.6125,103.125" style="stroke:#000000;stroke-width:1.875;"/><line style="stroke:#000000;stroke-width:1.875;" x1="160.6125" x2="263.1125" y1="132.6367" y2="132.6367"/><text fill="#000000" font-family="sans-serif" font-size="17.5" font-weight="bold" lengthAdjust="spacing" textLength="86.25" x="165.6125" y="123.7915">controller</text><!--MD5=[1b84dfb31147cb5f2b9e247149ed318e]
class controller.UseCaseController--><rect codeLine="3" fill="#FEFECE" filter="url(#f15rxbi3swpcpe)" height="77.2949" id="controller.UseCaseController" style="stroke:#A80036;stroke-width:1.875;" width="171.25" x="569.9875" y="472.5"/><ellipse cx="588.7375" cy="492.5" fill="#A9DCDF" rx="13.75" ry="13.75" style="stroke:#A80036;stroke-width:1.25;"/><path d="M590.925,494.375 L586.8039,494.375 L586.257,495.625 L586.257,495.625 L586.843,495.625 L587.4875,496.4063 L587.4875,496.875 L587.4875,497.3438 L586.843,498.125 L586.257,498.125 L583.8938,498.125 L583.132,498.125 L582.4875,497.3438 L582.4875,496.875 L582.4875,496.4063 L583.132,495.625 L583.8938,495.625 L586.7844,488.125 L585.6906,488.125 L584.382,488.125 L583.7375,487.3438 L583.7375,486.875 L583.7375,486.4063 L584.382,485.625 L585.6906,485.625 L590.2805,485.625 L593.6398,495.625 L594.343,495.625 L594.343,495.625 L594.9875,496.4063 L594.9875,496.875 L594.9875,497.3438 L594.343,498.125 L593.6398,498.125 L591.2766,498.125 L590.632,498.125 L589.9875,497.3438 L589.9875,496.875 L589.9875,496.4063 L590.632,495.625 L591.2766,495.625 L591.2766,495.625 L590.925,494.375 Z M590.2414,491.875 L588.7375,487.4023 L587.4484,491.875 L590.2414,491.875 Z " fill="#000000"/><text fill="#000000" font-family="sans-serif" font-size="15" font-style="italic" lengthAdjust="spacing" textLength="131.25" x="606.2375" y="498.6377">UseCaseController</text><line style="stroke:#A80036;stroke-width:1.875;" x1="571.2375" x2="739.9875" y1="512.5" y2="512.5"/><ellipse cx="583.7375" cy="526.25" fill="none" rx="3.75" ry="3.75" style="stroke:#038048;stroke-width:1.25;"/><text fill="#000000" font-family="sans-serif" font-size="13.75" lengthAdjust="spacing" textLength="107.5" x="594.9875" y="531.7737">session : Session</text><line style="stroke:#A80036;stroke-width:1.875;" x1="571.2375" x2="739.9875" y1="539.7949" y2="539.7949"/><!--MD5=[1cdaa278c3671f20acd0ff516e097352]
class controller.AceptorController--><rect codeLine="6" fill="#FEFECE" filter="url(#f15rxbi3swpcpe)" height="87.5293" id="controller.AceptorController" style="stroke:#A80036;stroke-width:1.875;" width="162.5" x="440.6125" y="287.5"/><ellipse cx="460.4875" cy="312.6172" fill="#B4A7E5" rx="13.75" ry="13.75" style="stroke:#A80036;stroke-width:1.25;"/><path d="M461.7375,308.8672 L461.7375,316.3672 L464.2375,316.3672 L464.843,316.3672 L465.4875,317.1484 L465.4875,317.6172 L465.4875,318.0859 L464.843,318.8672 L464.2375,318.8672 L456.7375,318.8672 L456.132,318.8672 L455.4875,318.0859 L455.4875,317.6172 L455.4875,317.1484 L456.132,316.3672 L456.7375,316.3672 L459.2375,316.3672 L459.2375,308.8672 L456.7375,308.8672 L456.132,308.8672 L455.4875,308.0859 L455.4875,307.6172 L455.4875,307.1484 L456.132,306.3672 L456.7375,306.3672 L464.2375,306.3672 L464.843,306.3672 L465.4875,307.1484 L465.4875,307.6172 L465.4875,308.0859 L464.843,308.8672 L464.2375,308.8672 L461.7375,308.8672 Z " fill="#000000"/><text fill="#000000" font-family="sans-serif" font-size="15" font-style="italic" lengthAdjust="spacing" textLength="75" x="500.7375" y="309.3213">«Element»</text><text fill="#000000" font-family="sans-serif" font-size="15" font-style="italic" lengthAdjust="spacing" textLength="120" x="478.2375" y="328.1885">AceptorController</text><line style="stroke:#A80036;stroke-width:1.875;" x1="441.8625" x2="601.8625" y1="337.7344" y2="337.7344"/><line style="stroke:#A80036;stroke-width:1.875;" x1="441.8625" x2="601.8625" y1="347.7344" y2="347.7344"/><text fill="#000000" font-family="sans-serif" font-size="13.75" lengthAdjust="spacing" textLength="147.5" x="448.1125" y="367.0081">accept(ControllerVisitor)</text><!--MD5=[94bcc58ad0a454ede416ad0904a4d838]
class controller.PlayController--><rect codeLine="9" fill="#FEFECE" filter="url(#f15rxbi3swpcpe)" height="70.2344" id="controller.PlayController" style="stroke:#A80036;stroke-width:1.875;" width="172.5" x="705.6125" y="647.5"/><ellipse cx="724.3625" cy="672.6172" fill="#ADD1B2" rx="13.75" ry="13.75" style="stroke:#A80036;stroke-width:1.25;"/><path d="M726.8625,668.2422 Q727.1164,667.6172 727.4094,667.3047 Q727.7023,666.9922 728.0344,666.9922 Q728.6203,666.9922 728.9914,667.3438 Q729.3625,667.6953 729.3625,668.5156 L729.3625,670.4688 Q729.3625,671.2891 729.0109,671.6406 Q728.6594,671.9922 728.1125,671.9922 Q727.6242,671.9922 727.3117,671.7773 Q726.9992,671.5625 726.8625,670.9961 Q726.8039,670.6055 726.5891,670.3906 Q726.1984,669.9805 725.4953,669.7461 Q724.7922,669.4922 724.0891,669.4922 Q723.2102,669.4922 722.468,669.8438 Q721.7453,670.1953 721.1789,670.9766 Q720.6125,671.7578 720.6125,672.832 L720.6125,673.9844 Q720.6125,675.2734 721.6672,676.1328 Q722.7219,676.9922 724.5969,676.9922 Q725.7102,676.9922 726.4914,676.7383 Q726.9406,676.6016 727.4484,676.1523 Q727.7805,675.8984 727.9563,675.8203 Q728.132,675.7422 728.3469,675.7422 Q728.757,675.7422 729.05,676.0742 Q729.3625,676.3867 729.3625,676.8359 Q729.3625,677.2656 728.9328,677.7734 Q728.3078,678.5156 727.3117,678.9258 Q726.0031,679.4922 724.4016,679.4922 Q722.5266,679.4922 721.0227,678.75 Q719.8117,678.1641 718.9523,676.8945 Q718.1125,675.625 718.1125,674.1211 L718.1125,672.7539 Q718.1125,671.1914 718.8547,669.8242 Q719.6164,668.457 720.925,667.7344 Q722.2531,666.9922 723.7375,666.9922 Q724.6359,666.9922 725.4172,667.3047 Q726.1984,667.6172 726.8625,668.2422 Z " fill="#000000"/><text fill="#000000" font-family="sans-serif" font-size="15" font-style="italic" lengthAdjust="spacing" textLength="137.5" x="739.3625" y="669.3213">«ConcreteElement»</text><text fill="#000000" font-family="sans-serif" font-size="15" lengthAdjust="spacing" textLength="96.25" x="759.9875" y="688.1885">PlayController</text><line style="stroke:#A80036;stroke-width:1.875;" x1="706.8625" x2="876.8625" y1="697.7344" y2="697.7344"/><line style="stroke:#A80036;stroke-width:1.875;" x1="706.8625" x2="876.8625" y1="707.7344" y2="707.7344"/><!--MD5=[cb44e06cf04fffc5e4bd0ba557873718]
class controller.ResumeController--><rect codeLine="10" fill="#FEFECE" filter="url(#f15rxbi3swpcpe)" height="70.2344" id="controller.ResumeController" style="stroke:#A80036;stroke-width:1.875;" width="172.5" x="396.8625" y="647.5"/><ellipse cx="415.6125" cy="672.6172" fill="#ADD1B2" rx="13.75" ry="13.75" style="stroke:#A80036;stroke-width:1.25;"/><path d="M418.1125,668.2422 Q418.3664,667.6172 418.6594,667.3047 Q418.9523,666.9922 419.2844,666.9922 Q419.8703,666.9922 420.2414,667.3438 Q420.6125,667.6953 420.6125,668.5156 L420.6125,670.4688 Q420.6125,671.2891 420.2609,671.6406 Q419.9094,671.9922 419.3625,671.9922 Q418.8742,671.9922 418.5617,671.7773 Q418.2492,671.5625 418.1125,670.9961 Q418.0539,670.6055 417.8391,670.3906 Q417.4484,669.9805 416.7453,669.7461 Q416.0422,669.4922 415.3391,669.4922 Q414.4602,669.4922 413.718,669.8438 Q412.9953,670.1953 412.4289,670.9766 Q411.8625,671.7578 411.8625,672.832 L411.8625,673.9844 Q411.8625,675.2734 412.9172,676.1328 Q413.9719,676.9922 415.8469,676.9922 Q416.9602,676.9922 417.7414,676.7383 Q418.1906,676.6016 418.6984,676.1523 Q419.0305,675.8984 419.2063,675.8203 Q419.382,675.7422 419.5969,675.7422 Q420.007,675.7422 420.3,676.0742 Q420.6125,676.3867 420.6125,676.8359 Q420.6125,677.2656 420.1828,677.7734 Q419.5578,678.5156 418.5617,678.9258 Q417.2531,679.4922 415.6516,679.4922 Q413.7766,679.4922 412.2727,678.75 Q411.0617,678.1641 410.2023,676.8945 Q409.3625,675.625 409.3625,674.1211 L409.3625,672.7539 Q409.3625,671.1914 410.1047,669.8242 Q410.8664,668.457 412.175,667.7344 Q413.5031,666.9922 414.9875,666.9922 Q415.8859,666.9922 416.6672,667.3047 Q417.4484,667.6172 418.1125,668.2422 Z " fill="#000000"/><text fill="#000000" font-family="sans-serif" font-size="15" font-style="italic" lengthAdjust="spacing" textLength="137.5" x="430.6125" y="669.3213">«ConcreteElement»</text><text fill="#000000" font-family="sans-serif" font-size="15" lengthAdjust="spacing" textLength="127.5" x="435.6125" y="688.1885">ResumeController</text><line style="stroke:#A80036;stroke-width:1.875;" x1="398.1125" x2="568.1125" y1="697.7344" y2="697.7344"/><line style="stroke:#A80036;stroke-width:1.875;" x1="398.1125" x2="568.1125" y1="707.7344" y2="707.7344"/><!--MD5=[c91fdd06e83b7e851da697205f80054b]
class controller.StartController--><rect codeLine="11" fill="#FEFECE" filter="url(#f15rxbi3swpcpe)" height="70.2344" id="controller.StartController" style="stroke:#A80036;stroke-width:1.875;" width="172.5" x="180.6125" y="647.5"/><ellipse cx="199.3625" cy="672.6172" fill="#ADD1B2" rx="13.75" ry="13.75" style="stroke:#A80036;stroke-width:1.25;"/><path d="M201.8625,668.2422 Q202.1164,667.6172 202.4094,667.3047 Q202.7023,666.9922 203.0344,666.9922 Q203.6203,666.9922 203.9914,667.3438 Q204.3625,667.6953 204.3625,668.5156 L204.3625,670.4688 Q204.3625,671.2891 204.0109,671.6406 Q203.6594,671.9922 203.1125,671.9922 Q202.6242,671.9922 202.3117,671.7773 Q201.9992,671.5625 201.8625,670.9961 Q201.8039,670.6055 201.5891,670.3906 Q201.1984,669.9805 200.4953,669.7461 Q199.7922,669.4922 199.0891,669.4922 Q198.2102,669.4922 197.468,669.8438 Q196.7453,670.1953 196.1789,670.9766 Q195.6125,671.7578 195.6125,672.832 L195.6125,673.9844 Q195.6125,675.2734 196.6672,676.1328 Q197.7219,676.9922 199.5969,676.9922 Q200.7102,676.9922 201.4914,676.7383 Q201.9406,676.6016 202.4484,676.1523 Q202.7805,675.8984 202.9563,675.8203 Q203.132,675.7422 203.3469,675.7422 Q203.757,675.7422 204.05,676.0742 Q204.3625,676.3867 204.3625,676.8359 Q204.3625,677.2656 203.9328,677.7734 Q203.3078,678.5156 202.3117,678.9258 Q201.0031,679.4922 199.4016,679.4922 Q197.5266,679.4922 196.0227,678.75 Q194.8117,678.1641 193.9523,676.8945 Q193.1125,675.625 193.1125,674.1211 L193.1125,672.7539 Q193.1125,671.1914 193.8547,669.8242 Q194.6164,668.457 195.925,667.7344 Q197.2531,666.9922 198.7375,666.9922 Q199.6359,666.9922 200.4172,667.3047 Q201.1984,667.6172 201.8625,668.2422 Z " fill="#000000"/><text fill="#000000" font-family="sans-serif" font-size="15" font-style="italic" lengthAdjust="spacing" textLength="137.5" x="214.3625" y="669.3213">«ConcreteElement»</text><text fill="#000000" font-family="sans-serif" font-size="15" lengthAdjust="spacing" textLength="98.75" x="233.7375" y="688.1885">StartController</text><line style="stroke:#A80036;stroke-width:1.875;" x1="181.8625" x2="351.8625" y1="697.7344" y2="697.7344"/><line style="stroke:#A80036;stroke-width:1.875;" x1="181.8625" x2="351.8625" y1="707.7344" y2="707.7344"/><!--MD5=[eb40a78635197f6f402fd43e81002b92]
class controller.ControllerVisitor--><rect codeLine="12" fill="#FEFECE" filter="url(#f15rxbi3swpcpe)" height="122.1191" id="controller.ControllerVisitor" style="stroke:#A80036;stroke-width:1.875;" width="155" x="321.8625" y="450"/><ellipse cx="342.8625" cy="475.1172" fill="#B4A7E5" rx="13.75" ry="13.75" style="stroke:#A80036;stroke-width:1.25;"/><path d="M344.1125,471.3672 L344.1125,478.8672 L346.6125,478.8672 L347.218,478.8672 L347.8625,479.6484 L347.8625,480.1172 L347.8625,480.5859 L347.218,481.3672 L346.6125,481.3672 L339.1125,481.3672 L338.507,481.3672 L337.8625,480.5859 L337.8625,480.1172 L337.8625,479.6484 L338.507,478.8672 L339.1125,478.8672 L341.6125,478.8672 L341.6125,471.3672 L339.1125,471.3672 L338.507,471.3672 L337.8625,470.5859 L337.8625,470.1172 L337.8625,469.6484 L338.507,468.8672 L339.1125,468.8672 L346.6125,468.8672 L347.218,468.8672 L347.8625,469.6484 L347.8625,470.1172 L347.8625,470.5859 L347.218,471.3672 L346.6125,471.3672 L344.1125,471.3672 Z " fill="#000000"/><text fill="#000000" font-family="sans-serif" font-size="15" font-style="italic" lengthAdjust="spacing" textLength="60" x="385.8625" y="471.8213">«Visitor»</text><text fill="#000000" font-family="sans-serif" font-size="15" font-style="italic" lengthAdjust="spacing" textLength="110" x="360.8625" y="490.6885">ControllerVisitor</text><line style="stroke:#A80036;stroke-width:1.875;" x1="323.1125" x2="475.6125" y1="500.2344" y2="500.2344"/><line style="stroke:#A80036;stroke-width:1.875;" x1="323.1125" x2="475.6125" y1="510.2344" y2="510.2344"/><text fill="#000000" font-family="sans-serif" font-size="13.75" lengthAdjust="spacing" textLength="120" x="329.3625" y="529.5081">visit(StartController)</text><text fill="#000000" font-family="sans-serif" font-size="13.75" lengthAdjust="spacing" textLength="116.25" x="329.3625" y="546.803">visit(PlayController)</text><text fill="#000000" font-family="sans-serif" font-size="13.75" lengthAdjust="spacing" textLength="140" x="329.3625" y="564.0979">visit(ResumeController)</text><!--MD5=[cec271e26b261626c98ef624da7a95e7]
class controller.Logic--><rect codeLine="17" fill="#FEFECE" filter="url(#f15rxbi3swpcpe)" height="60" id="controller.Logic" style="stroke:#A80036;stroke-width:1.875;" width="77.5" x="483.1125" y="148.125"/><ellipse cx="501.8625" cy="168.125" fill="#ADD1B2" rx="13.75" ry="13.75" style="stroke:#A80036;stroke-width:1.25;"/><path d="M504.3625,163.75 Q504.6164,163.125 504.9094,162.8125 Q505.2023,162.5 505.5344,162.5 Q506.1203,162.5 506.4914,162.8516 Q506.8625,163.2031 506.8625,164.0234 L506.8625,165.9766 Q506.8625,166.7969 506.5109,167.1484 Q506.1594,167.5 505.6125,167.5 Q505.1242,167.5 504.8117,167.2852 Q504.4992,167.0703 504.3625,166.5039 Q504.3039,166.1133 504.0891,165.8984 Q503.6984,165.4883 502.9953,165.2539 Q502.2922,165 501.5891,165 Q500.7102,165 499.968,165.3516 Q499.2453,165.7031 498.6789,166.4844 Q498.1125,167.2656 498.1125,168.3398 L498.1125,169.4922 Q498.1125,170.7813 499.1672,171.6406 Q500.2219,172.5 502.0969,172.5 Q503.2102,172.5 503.9914,172.2461 Q504.4406,172.1094 504.9484,171.6602 Q505.2805,171.4063 505.4563,171.3281 Q505.632,171.25 505.8469,171.25 Q506.257,171.25 506.55,171.582 Q506.8625,171.8945 506.8625,172.3438 Q506.8625,172.7734 506.4328,173.2813 Q505.8078,174.0234 504.8117,174.4336 Q503.5031,175 501.9016,175 Q500.0266,175 498.5227,174.2578 Q497.3117,173.6719 496.4523,172.4023 Q495.6125,171.1328 495.6125,169.6289 L495.6125,168.2617 Q495.6125,166.6992 496.3547,165.332 Q497.1164,163.9648 498.425,163.2422 Q499.7531,162.5 501.2375,162.5 Q502.1359,162.5 502.9172,162.8125 Q503.6984,163.125 504.3625,163.75 Z " fill="#000000"/><text fill="#000000" font-family="sans-serif" font-size="15" lengthAdjust="spacing" textLength="37.5" x="519.3625" y="174.2627">Logic</text><line style="stroke:#A80036;stroke-width:1.875;" x1="484.3625" x2="559.3625" y1="188.125" y2="188.125"/><line style="stroke:#A80036;stroke-width:1.875;" x1="484.3625" x2="559.3625" y1="198.125" y2="198.125"/><!--MD5=[2ea7120ddf307cd18acd50cdab7b609b]
class controller.UndoController--><rect fill="#FEFECE" filter="url(#f15rxbi3swpcpe)" height="60" id="controller.UndoController" style="stroke:#A80036;stroke-width:1.875;" width="145" x="396.8625" y="792.5"/><ellipse cx="415.6125" cy="812.5" fill="#ADD1B2" rx="13.75" ry="13.75" style="stroke:#A80036;stroke-width:1.25;"/><path d="M418.1125,808.125 Q418.3664,807.5 418.6594,807.1875 Q418.9523,806.875 419.2844,806.875 Q419.8703,806.875 420.2414,807.2266 Q420.6125,807.5781 420.6125,808.3984 L420.6125,810.3516 Q420.6125,811.1719 420.2609,811.5234 Q419.9094,811.875 419.3625,811.875 Q418.8742,811.875 418.5617,811.6602 Q418.2492,811.4453 418.1125,810.8789 Q418.0539,810.4883 417.8391,810.2734 Q417.4484,809.8633 416.7453,809.6289 Q416.0422,809.375 415.3391,809.375 Q414.4602,809.375 413.718,809.7266 Q412.9953,810.0781 412.4289,810.8594 Q411.8625,811.6406 411.8625,812.7148 L411.8625,813.8672 Q411.8625,815.1563 412.9172,816.0156 Q413.9719,816.875 415.8469,816.875 Q416.9602,816.875 417.7414,816.6211 Q418.1906,816.4844 418.6984,816.0352 Q419.0305,815.7813 419.2063,815.7031 Q419.382,815.625 419.5969,815.625 Q420.007,815.625 420.3,815.957 Q420.6125,816.2695 420.6125,816.7188 Q420.6125,817.1484 420.1828,817.6563 Q419.5578,818.3984 418.5617,818.8086 Q417.2531,819.375 415.6516,819.375 Q413.7766,819.375 412.2727,818.6328 Q411.0617,818.0469 410.2023,816.7773 Q409.3625,815.5078 409.3625,814.0039 L409.3625,812.6367 Q409.3625,811.0742 410.1047,809.707 Q410.8664,808.3398 412.175,807.6172 Q413.5031,806.875 414.9875,806.875 Q415.8859,806.875 416.6672,807.1875 Q417.4484,807.5 418.1125,808.125 Z " fill="#000000"/><text fill="#000000" font-family="sans-serif" font-size="15" lengthAdjust="spacing" textLength="105" x="433.1125" y="818.6377">UndoController</text><line style="stroke:#A80036;stroke-width:1.875;" x1="398.1125" x2="540.6125" y1="832.5" y2="832.5"/><line style="stroke:#A80036;stroke-width:1.875;" x1="398.1125" x2="540.6125" y1="842.5" y2="842.5"/><!--MD5=[74c126baecf4b9913370db9da0a44fb1]
class controller.RedoController--><rect fill="#FEFECE" filter="url(#f15rxbi3swpcpe)" height="60" id="controller.RedoController" style="stroke:#A80036;stroke-width:1.875;" width="145" x="779.3625" y="792.5"/><ellipse cx="798.1125" cy="812.5" fill="#ADD1B2" rx="13.75" ry="13.75" style="stroke:#A80036;stroke-width:1.25;"/><path d="M800.6125,808.125 Q800.8664,807.5 801.1594,807.1875 Q801.4523,806.875 801.7844,806.875 Q802.3703,806.875 802.7414,807.2266 Q803.1125,807.5781 803.1125,808.3984 L803.1125,810.3516 Q803.1125,811.1719 802.7609,811.5234 Q802.4094,811.875 801.8625,811.875 Q801.3742,811.875 801.0617,811.6602 Q800.7492,811.4453 800.6125,810.8789 Q800.5539,810.4883 800.3391,810.2734 Q799.9484,809.8633 799.2453,809.6289 Q798.5422,809.375 797.8391,809.375 Q796.9602,809.375 796.218,809.7266 Q795.4953,810.0781 794.9289,810.8594 Q794.3625,811.6406 794.3625,812.7148 L794.3625,813.8672 Q794.3625,815.1563 795.4172,816.0156 Q796.4719,816.875 798.3469,816.875 Q799.4602,816.875 800.2414,816.6211 Q800.6906,816.4844 801.1984,816.0352 Q801.5305,815.7813 801.7063,815.7031 Q801.882,815.625 802.0969,815.625 Q802.507,815.625 802.8,815.957 Q803.1125,816.2695 803.1125,816.7188 Q803.1125,817.1484 802.6828,817.6563 Q802.0578,818.3984 801.0617,818.8086 Q799.7531,819.375 798.1516,819.375 Q796.2766,819.375 794.7727,818.6328 Q793.5617,818.0469 792.7023,816.7773 Q791.8625,815.5078 791.8625,814.0039 L791.8625,812.6367 Q791.8625,811.0742 792.6047,809.707 Q793.3664,808.3398 794.675,807.6172 Q796.0031,806.875 797.4875,806.875 Q798.3859,806.875 799.1672,807.1875 Q799.9484,807.5 800.6125,808.125 Z " fill="#000000"/><text fill="#000000" font-family="sans-serif" font-size="15" lengthAdjust="spacing" textLength="105" x="815.6125" y="818.6377">RedoController</text><line style="stroke:#A80036;stroke-width:1.875;" x1="780.6125" x2="923.1125" y1="832.5" y2="832.5"/><line style="stroke:#A80036;stroke-width:1.875;" x1="780.6125" x2="923.1125" y1="842.5" y2="842.5"/><!--MD5=[696af5902de1acfea8cead87f6cdb437]
class controller.ActionController--><rect fill="#FEFECE" filter="url(#f15rxbi3swpcpe)" height="60" id="controller.ActionController" style="stroke:#A80036;stroke-width:1.875;" width="148.75" x="586.2375" y="792.5"/><ellipse cx="604.9875" cy="812.5" fill="#ADD1B2" rx="13.75" ry="13.75" style="stroke:#A80036;stroke-width:1.25;"/><path d="M607.4875,808.125 Q607.7414,807.5 608.0344,807.1875 Q608.3273,806.875 608.6594,806.875 Q609.2453,806.875 609.6164,807.2266 Q609.9875,807.5781 609.9875,808.3984 L609.9875,810.3516 Q609.9875,811.1719 609.6359,811.5234 Q609.2844,811.875 608.7375,811.875 Q608.2492,811.875 607.9367,811.6602 Q607.6242,811.4453 607.4875,810.8789 Q607.4289,810.4883 607.2141,810.2734 Q606.8234,809.8633 606.1203,809.6289 Q605.4172,809.375 604.7141,809.375 Q603.8352,809.375 603.093,809.7266 Q602.3703,810.0781 601.8039,810.8594 Q601.2375,811.6406 601.2375,812.7148 L601.2375,813.8672 Q601.2375,815.1563 602.2922,816.0156 Q603.3469,816.875 605.2219,816.875 Q606.3352,816.875 607.1164,816.6211 Q607.5656,816.4844 608.0734,816.0352 Q608.4055,815.7813 608.5813,815.7031 Q608.757,815.625 608.9719,815.625 Q609.382,815.625 609.675,815.957 Q609.9875,816.2695 609.9875,816.7188 Q609.9875,817.1484 609.5578,817.6563 Q608.9328,818.3984 607.9367,818.8086 Q606.6281,819.375 605.0266,819.375 Q603.1516,819.375 601.6477,818.6328 Q600.4367,818.0469 599.5773,816.7773 Q598.7375,815.5078 598.7375,814.0039 L598.7375,812.6367 Q598.7375,811.0742 599.4797,809.707 Q600.2414,808.3398 601.55,807.6172 Q602.8781,806.875 604.3625,806.875 Q605.2609,806.875 606.0422,807.1875 Q606.8234,807.5 607.4875,808.125 Z " fill="#000000"/><text fill="#000000" font-family="sans-serif" font-size="15" lengthAdjust="spacing" textLength="108.75" x="622.4875" y="818.6377">ActionController</text><line style="stroke:#A80036;stroke-width:1.875;" x1="587.4875" x2="733.7375" y1="832.5" y2="832.5"/><line style="stroke:#A80036;stroke-width:1.875;" x1="587.4875" x2="733.7375" y1="842.5" y2="842.5"/><polygon fill="#FFFFFF" filter="url(#f15rxbi3swpcpe)" points="63.7375,143.75,122.4875,143.75,131.2375,173.2617,139.9875,173.2617,139.9875,212.7734,63.7375,212.7734,63.7375,143.75" style="stroke:#000000;stroke-width:1.875;"/><line style="stroke:#000000;stroke-width:1.875;" x1="63.7375" x2="131.2375" y1="173.2617" y2="173.2617"/><text fill="#000000" font-family="sans-serif" font-size="17.5" font-weight="bold" lengthAdjust="spacing" textLength="51.25" x="68.7375" y="164.4165">views</text><polygon fill="#FFFFFF" filter="url(#f15rxbi3swpcpe)" points="734.9875,1003.75,806.2375,1003.75,814.9875,1033.2617,823.7375,1033.2617,823.7375,1072.7734,734.9875,1072.7734,734.9875,1003.75" style="stroke:#000000;stroke-width:1.875;"/><line style="stroke:#000000;stroke-width:1.875;" x1="734.9875" x2="814.9875" y1="1033.2617" y2="1033.2617"/><text fill="#000000" font-family="sans-serif" font-size="17.5" font-weight="bold" lengthAdjust="spacing" textLength="63.75" x="739.9875" y="1024.4165">models</text><!--MD5=[68946827c62017154c3369ec90197e60]
class Checkers--><rect codeLine="19" fill="#FEFECE" filter="url(#f15rxbi3swpcpe)" height="60" id="Checkers" style="stroke:#A80036;stroke-width:1.875;" width="106.25" x="258.7375" y="8.75"/><ellipse cx="277.4875" cy="28.75" fill="#ADD1B2" rx="13.75" ry="13.75" style="stroke:#A80036;stroke-width:1.25;"/><path d="M279.9875,24.375 Q280.2414,23.75 280.5344,23.4375 Q280.8273,23.125 281.1594,23.125 Q281.7453,23.125 282.1164,23.4766 Q282.4875,23.8281 282.4875,24.6484 L282.4875,26.6016 Q282.4875,27.4219 282.1359,27.7734 Q281.7844,28.125 281.2375,28.125 Q280.7492,28.125 280.4367,27.9102 Q280.1242,27.6953 279.9875,27.1289 Q279.9289,26.7383 279.7141,26.5234 Q279.3234,26.1133 278.6203,25.8789 Q277.9172,25.625 277.2141,25.625 Q276.3352,25.625 275.593,25.9766 Q274.8703,26.3281 274.3039,27.1094 Q273.7375,27.8906 273.7375,28.9648 L273.7375,30.1172 Q273.7375,31.4063 274.7922,32.2656 Q275.8469,33.125 277.7219,33.125 Q278.8352,33.125 279.6164,32.8711 Q280.0656,32.7344 280.5734,32.2852 Q280.9055,32.0313 281.0813,31.9531 Q281.257,31.875 281.4719,31.875 Q281.882,31.875 282.175,32.207 Q282.4875,32.5195 282.4875,32.9688 Q282.4875,33.3984 282.0578,33.9063 Q281.4328,34.6484 280.4367,35.0586 Q279.1281,35.625 277.5266,35.625 Q275.6516,35.625 274.1477,34.8828 Q272.9367,34.2969 272.0773,33.0273 Q271.2375,31.7578 271.2375,30.2539 L271.2375,28.8867 Q271.2375,27.3242 271.9797,25.957 Q272.7414,24.5898 274.05,23.8672 Q275.3781,23.125 276.8625,23.125 Q277.7609,23.125 278.5422,23.4375 Q279.3234,23.75 279.9875,24.375 Z " fill="#000000"/><text fill="#000000" font-family="sans-serif" font-size="15" lengthAdjust="spacing" textLength="66.25" x="294.9875" y="34.8877">Checkers</text><line style="stroke:#A80036;stroke-width:1.875;" x1="259.9875" x2="363.7375" y1="48.75" y2="48.75"/><line style="stroke:#A80036;stroke-width:1.875;" x1="259.9875" x2="363.7375" y1="58.75" y2="58.75"/><!--MD5=[8f4ddcc0f2b68b43906126cc275f1c60]
link views to controller.ControllerVisitor--><path codeLine="24" d="M140,208.1625 C166.3625,228.8875 201.5625,258.2625 229.3625,287.5 C276.025,336.6 322.25,398.1625 354.6875,444.0875 " fill="none" id="views-to-controller.ControllerVisitor" style="stroke:#808080;stroke-width:1.25;stroke-dasharray:7.0,7.0;"/><polygon fill="#808080" points="358.575,449.6,356.2169,437.5169,354.9897,444.4806,348.0259,443.2534,358.575,449.6" style="stroke:#808080;stroke-width:1.25;"/><!--MD5=[9444e2f46eef8aaf0a949cff95f1f1fb]
link views to controller.AceptorController--><path codeLine="25" d="M140.125,202.5125 C146.825,206.1125 153.825,209.6 160.6125,212.5 C265.7875,257.525 298.4375,250.9875 406.8625,287.5 C415.7125,290.475 424.9,293.6875 434.0625,296.95 " fill="none" id="views-to-controller.AceptorController" style="stroke:#808080;stroke-width:1.25;stroke-dasharray:7.0,7.0;"/><polygon fill="#808080" points="440.4,299.225,431.4985,290.7205,434.517,297.115,428.1225,300.1334,440.4,299.225" style="stroke:#808080;stroke-width:1.25;"/><!--MD5=[53b78f84077db0e5b6b8e35801ee1e0e]
link views to controller.PlayController--><path codeLine="26" d="M108.625,212.9625 C125.9125,289.6375 179.2,478.2125 300.6125,572.5 C331.8875,596.7875 565.425,641.25 698.9375,665.1 " fill="none" id="views-to-controller.PlayController" style="stroke:#808080;stroke-width:1.25;stroke-dasharray:7.0,7.0;"/><polygon fill="#808080" points="705.2125,666.225,695.0049,659.3426,699.058,665.1368,693.2638,669.1899,705.2125,666.225" style="stroke:#808080;stroke-width:1.25;"/><!--MD5=[c260d58d9ef73a025d58080dbec77aa2]
link views to controller.ResumeController--><path codeLine="27" d="M96.675,212.9625 C87.2,287.2 75.5625,467.0375 164.3625,572.5 C172.0375,581.625 299.425,623.3 390.7875,652.325 " fill="none" id="views-to-controller.ResumeController" style="stroke:#808080;stroke-width:1.25;stroke-dasharray:7.0,7.0;"/><polygon fill="#808080" points="396.7625,654.2125,387.552,646.0437,390.8053,652.3219,384.5271,655.5752,396.7625,654.2125" style="stroke:#808080;stroke-width:1.25;"/><!--MD5=[64304ad79df76a86120fafefe28a5df2]
link views to controller.StartController--><path codeLine="28" d="M87.9375,212.7375 C60.45,284.2875 7.5,455.425 75.6125,572.5 C97.2125,609.6375 136.75,635.1375 174.3,652.05 " fill="none" id="views-to-controller.StartController" style="stroke:#808080;stroke-width:1.25;stroke-dasharray:7.0,7.0;"/><polygon fill="#808080" points="180.3,654.6875,172.0212,645.5758,174.5806,652.1674,167.989,654.7268,180.3,654.6875" style="stroke:#808080;stroke-width:1.25;"/><!--MD5=[0b43654bdf99fbcbbf5e3150e79cbba6]
link views to controller.UseCaseController--><path codeLine="29" d="M140.075,200.975 C146.9125,204.8125 153.9625,208.7875 160.6125,212.5 C220.5,246.025 237.5,250.9625 295.6125,287.5 C352.6375,323.35 362.55,338.8 419.3625,375 C472,408.5375 533.2375,443.425 580.175,469.325 " fill="none" id="views-to-controller.UseCaseController" style="stroke:#808080;stroke-width:1.25;stroke-dasharray:7.0,7.0;"/><polygon fill="#808080" points="585.825,472.4375,578.3563,462.6507,580.3423,469.4372,573.5558,471.4231,585.825,472.4375" style="stroke:#808080;stroke-width:1.25;"/><!--MD5=[9ea9c9c5ca0d8111881fac8e9c58b462]
reverse link Checkers to controller.Logic--><path codeLine="32" d="M370.1875,78.025 C406.2,101.4875 451.3875,130.9375 483.0375,151.575 " fill="none" id="Checkers-backto-controller.Logic" style="stroke:#A80036;stroke-width:1.25;"/><polygon fill="#A80036" points="356.4,69.025,359.9504,77.3102,368.9638,77.2195,365.4134,68.9343,356.4,69.025" style="stroke:#A80036;stroke-width:1.25;"/><!--MD5=[878229b1b23fa103fea102873921d85f]
reverse link Checkers to views--><path codeLine="33" d="M242.875,54.475 C215.375,62.625 184.625,74.925 160.6125,93.125 C143.05,106.425 128.725,126.4875 118.6125,143.65 " fill="none" id="Checkers-backto-views" style="stroke:#A80036;stroke-width:1.25;"/><polygon fill="#A80036" points="258.6125,50.15,250.0527,47.3251,244.1529,54.14,252.7127,56.9649,258.6125,50.15" style="stroke:#A80036;stroke-width:1.25;"/><!--MD5=[ec7f8d768e743d7d79e549c69464c2ec]
reverse link controller.Logic to controller.AceptorController--><path codeLine="34" d="M521.8625,224.8375 C521.8625,244.6875 521.8625,267.85 521.8625,287.3625 " fill="none" id="controller.Logic-backto-controller.AceptorController" style="stroke:#A80036;stroke-width:1.25;"/><polygon fill="#A80036" points="521.8625,208.4125,516.8625,215.9125,521.8625,223.4125,526.8625,215.9125,521.8625,208.4125" style="stroke:#A80036;stroke-width:1.25;"/><text fill="#000000" font-family="sans-serif" font-size="16.25" lengthAdjust="spacing" textLength="6.25" x="515.0168" y="273.9982">*</text><!--MD5=[1b2c91085d1bcef7448eafffdacd2c7d]
reverse link controller.AceptorController to controller.PlayController--><path codeLine="35" d="M627.2625,358.6 C676.3125,376.25 730.825,404.825 763.1125,450 C805.3375,509.075 802.4875,599 797,647.4625 " fill="none" id="controller.AceptorController-backto-controller.PlayController" style="stroke:#A80036;stroke-width:1.25;"/><polygon fill="none" points="624.35,366.8625,603.375,350.6875,629.8625,350.25,624.35,366.8625" style="stroke:#A80036;stroke-width:1.25;"/><!--MD5=[157b666c60c81f4bd4df6cb8aa5d9206]
reverse link controller.AceptorController to controller.ResumeController--><path codeLine="36" d="M516.5125,400.125 C512.475,448.2625 506.4125,514.45 499.3625,572.5 C496.325,597.5125 492.1,625.65 488.7125,647.025 " fill="none" id="controller.AceptorController-backto-controller.ResumeController" style="stroke:#A80036;stroke-width:1.25;"/><polygon fill="none" points="507.8125,399.2625,518.575,375.0625,525.25,400.7,507.8125,399.2625" style="stroke:#A80036;stroke-width:1.25;"/><!--MD5=[f69dab7f66ece3e6b77db46bd84c7a51]
reverse link controller.AceptorController to controller.StartController--><path codeLine="37" d="M417,364.5125 C374.35,382.8125 328.6125,410.25 300.6125,450 C258.775,509.375 258.95,598.775 262.825,647.1875 " fill="none" id="controller.AceptorController-backto-controller.StartController" style="stroke:#A80036;stroke-width:1.25;"/><polygon fill="none" points="413.775,356.375,440.2375,355.2625,420.25,372.6375,413.775,356.375" style="stroke:#A80036;stroke-width:1.25;"/><!--MD5=[de2befeb608d2b92027c2b2ebe8df1b6]
link controller.ControllerVisitor to controller.PlayController--><path codeLine="38" d="M476.9,545.8375 C543.2625,574.375 638.6375,615.375 707.0125,644.775 " fill="none" id="controller.ControllerVisitor-to-controller.PlayController" style="stroke:#808080;stroke-width:1.25;stroke-dasharray:7.0,7.0;"/><polygon fill="#808080" points="713.1375,647.4,704.7769,638.3633,707.3956,644.9315,700.8273,647.5503,713.1375,647.4" style="stroke:#808080;stroke-width:1.25;"/><!--MD5=[8abfaf503e43e860094b8c78fbfd975f]
link controller.ControllerVisitor to controller.StartController--><path codeLine="39" d="M351.9,572.95 C333.825,595.9625 313.725,621.575 297.6,642.1 " fill="none" id="controller.ControllerVisitor-to-controller.StartController" style="stroke:#808080;stroke-width:1.25;stroke-dasharray:7.0,7.0;"/><polygon fill="#808080" points="293.5875,647.2125,304.4816,641.4782,297.4591,642.3061,296.6313,635.2836,293.5875,647.2125" style="stroke:#808080;stroke-width:1.25;"/><!--MD5=[b286b1fd73865371594e6b7671a0ae38]
link controller.ControllerVisitor to controller.ResumeController--><path codeLine="40" d="M429.3625,572.95 C440.6875,595.7625 453.275,621.1375 463.425,641.575 " fill="none" id="controller.ControllerVisitor-to-controller.ResumeController" style="stroke:#808080;stroke-width:1.25;stroke-dasharray:7.0,7.0;"/><polygon fill="#808080" points="466.2125,647.2125,465.6849,634.9127,463.4317,641.6152,456.7292,639.362,466.2125,647.2125" style="stroke:#808080;stroke-width:1.25;"/><!--MD5=[bc04719a9ef34181e31909e72fe29868]
reverse link controller.UseCaseController to controller.StartController--><path codeLine="41" d="M546.5,559.8625 C482.325,587.7125 402.7,622.2875 344.8375,647.4 " fill="none" id="controller.UseCaseController-backto-controller.StartController" style="stroke:#A80036;stroke-width:1.25;"/><polygon fill="none" points="543.4,551.675,569.8125,549.7375,550.3625,567.725,543.4,551.675" style="stroke:#A80036;stroke-width:1.25;"/><!--MD5=[cbdf8364594f6b6b4d5d9c010cbdc6f8]
reverse link controller.UseCaseController to controller.ResumeController--><path codeLine="42" d="M598.8625,568.0125 C572.2375,594.0625 541.35,624.275 518.175,646.95 " fill="none" id="controller.UseCaseController-backto-controller.ResumeController" style="stroke:#A80036;stroke-width:1.25;"/><polygon fill="none" points="592.9125,561.6,616.9,550.375,605.15,574.1125,592.9125,561.6" style="stroke:#A80036;stroke-width:1.25;"/><!--MD5=[28538a3dea2652cb4e8dba1f96be0471]
reverse link controller.UseCaseController to controller.PlayController--><path codeLine="43" d="M701.9625,569.9 C722.6375,595.5125 746.3,624.825 764.1625,646.95 " fill="none" id="controller.UseCaseController-backto-controller.PlayController" style="stroke:#A80036;stroke-width:1.25;"/><polygon fill="none" points="695.0875,575.325,686.1875,550.375,708.7,564.325,695.0875,575.325" style="stroke:#A80036;stroke-width:1.25;"/><!--MD5=[615743f50cb770298e8dfe8f8e253988]
reverse link controller.UseCaseController to controller.UndoController--><path codeLine="44" d="M645.775,574.6375 C636.825,617.475 620.4875,674.2625 591.8625,717.5 C572.0125,747.475 541.0625,773.5875 515.2375,792.1125 " fill="none" id="controller.UseCaseController-backto-controller.UndoController" style="stroke:#A80036;stroke-width:1.25;"/><polygon fill="none" points="637.1875,572.9375,650.4375,550.0125,654.3875,576.2,637.1875,572.9375" style="stroke:#A80036;stroke-width:1.25;"/><!--MD5=[b5f5378a95de6c1d82d0b28e8b50af34]
reverse link controller.UseCaseController to controller.RedoController--><path codeLine="45" d="M765.0375,544.0625 C815.6875,564.7625 871.075,597.5 900.6125,647.5 C928.0125,693.9 896.5875,756.375 873.0125,792.3875 " fill="none" id="controller.UseCaseController-backto-controller.RedoController" style="stroke:#A80036;stroke-width:1.25;"/><polygon fill="none" points="761.7125,552.1625,741.45,535.1125,767.925,535.8,761.7125,552.1625" style="stroke:#A80036;stroke-width:1.25;"/><!--MD5=[3ec1eebd65f1d1eee17afb4f0a536e35]
link controller.AceptorController to controller.ControllerVisitor--><path codeLine="46" d="M492.5125,375.0125 C478.175,395.8 460.5875,421.2875 444.575,444.4875 " fill="none" id="controller.AceptorController-to-controller.ControllerVisitor" style="stroke:#808080;stroke-width:1.25;stroke-dasharray:7.0,7.0;"/><polygon fill="#808080" points="440.975,449.7125,451.4687,443.2747,444.5158,444.5622,443.2282,437.6094,440.975,449.7125" style="stroke:#808080;stroke-width:1.25;"/><!--MD5=[d7e5a8630f1f9da074fc0f8397d82acb]
reverse link controller.UseCaseController to controller.ActionController--><path codeLine="47" d="M656.625,575.5125 C657.7,641.725 659.3375,742.975 660.1375,792.275 " fill="none" id="controller.UseCaseController-backto-controller.ActionController" style="stroke:#A80036;stroke-width:1.25;"/><polygon fill="none" points="647.875,575.5,656.225,550.3625,665.375,575.2125,647.875,575.5" style="stroke:#A80036;stroke-width:1.25;"/><!--MD5=[83cad7c233de483ed7b0ae6b2153dab4]
reverse link controller.PlayController to controller.UndoController--><path codeLine="48" d="M697.3125,724.0625 C645.8625,746 583.4125,772.625 536.9,792.45 " fill="none" id="controller.PlayController-backto-controller.UndoController" style="stroke:#A80036;stroke-width:1.25;"/><polygon fill="#A80036" points="712.55,717.5625,703.6897,715.9058,698.7526,723.4474,707.6129,725.1041,712.55,717.5625" style="stroke:#A80036;stroke-width:1.25;"/><!--MD5=[bfd992311d6c36af895763ce3613fcd7]
reverse link controller.PlayController to controller.RedoController--><path codeLine="49" d="M813.3625,733.025 C822.025,752.8875 831.7375,775.125 839.225,792.3 " fill="none" id="controller.PlayController-backto-controller.RedoController" style="stroke:#A80036;stroke-width:1.25;"/><polygon fill="#A80036" points="806.6875,717.7375,805.105,726.6114,812.6877,731.4852,814.2701,722.6113,806.6875,717.7375" style="stroke:#A80036;stroke-width:1.25;"/><!--MD5=[017254084ca0f52518b62f37095b5c29]
reverse link controller.PlayController to controller.ActionController--><path codeLine="50" d="M748.175,729.5125 C728.4,750.225 705.6125,774.1 688.25,792.3 " fill="none" id="controller.PlayController-backto-controller.ActionController" style="stroke:#A80036;stroke-width:1.25;"/><polygon fill="#A80036" points="759.4125,717.7375,750.6157,719.7039,749.0475,728.5803,757.8443,726.6139,759.4125,717.7375" style="stroke:#A80036;stroke-width:1.25;"/><!--MD5=[fb1a9efe393270665d7aad34cb420422]
link controller.Logic to models--><path codeLine="51" d="M560.825,180.9375 C700.55,188.7875 1168.1125,235.575 1168.1125,510 C1168.1125,510 1168.1125,510 1168.1125,823.75 C1168.1125,976.0375 935.8875,1020.2375 830.4125,1032.45 " fill="none" id="controller.Logic-to-models" style="stroke:#808080;stroke-width:1.25;stroke-dasharray:7.0,7.0;"/><polygon fill="#808080" points="823.95,1033.175,835.6881,1036.8872,830.1609,1032.4769,834.5712,1026.9498,823.95,1033.175" style="stroke:#808080;stroke-width:1.25;"/><!--MD5=[161231b2db5d2c8cea76b164439f49b4]
link controller.PlayController to models--><path codeLine="52" d="M868.5125,717.7375 C898.65,735.3875 930.025,760.125 946.8625,792.5 C965.3125,827.9875 962.9125,845.8625 946.8625,882.5 C923.0125,936.925 869.45,980.6375 829.275,1007.475 " fill="none" id="controller.PlayController-to-models" style="stroke:#808080;stroke-width:1.25;stroke-dasharray:7.0,7.0;"/><polygon fill="#808080" points="823.95,1010.9875,836.0954,1008.9746,829.1694,1007.5495,830.5945,1000.6235,823.95,1010.9875" style="stroke:#808080;stroke-width:1.25;"/><!--MD5=[e65b8669051f424c15b2e5e3483b4fe4]
link controller.UseCaseController to models--><path codeLine="53" d="M741.5875,540.525 C797.375,562.3375 868.4375,597.3875 916.8625,647.5 C966.425,698.7875 969.95,722.925 985.6125,792.5 C999.3375,853.5 996.65,886.45 950.6125,928.75 C913.9875,962.4 865.5625,991.8625 829.55,1011.5125 " fill="none" id="controller.UseCaseController-to-models" style="stroke:#808080;stroke-width:1.25;stroke-dasharray:7.0,7.0;"/><polygon fill="#808080" points="823.8875,1014.575,836.1605,1013.6081,829.3818,1011.5959,831.394,1004.8172,823.8875,1014.575" style="stroke:#808080;stroke-width:1.25;"/><!--MD5=[21c1318db813ade35224cc9d88772a0f]
link controller.StartController to models--><path codeLine="54" d="M273.975,717.7125 C287.9125,774.225 324.7625,885.5875 405.6125,928.75 C512.6125,985.875 653.4125,1016.0625 727.9375,1029 " fill="none" id="controller.StartController-to-models" style="stroke:#808080;stroke-width:1.25;stroke-dasharray:7.0,7.0;"/><polygon fill="#808080" points="734.5,1030.125,724.2731,1023.2714,728.3424,1029.0541,722.5597,1033.1235,734.5,1030.125" style="stroke:#808080;stroke-width:1.25;"/><!--MD5=[7e9d6e80272d9fd07243d0898999cf92]
link controller.ResumeController to models--><path codeLine="55" d="M435.1375,717.7875 C412.5,736.8625 387.8125,762.7875 375.6125,792.5 C360.4125,829.5 352.9375,849.55 375.6125,882.5 C456.425,999.9125 639.5875,1028.0875 728.725,1034.8 " fill="none" id="controller.ResumeController-to-models" style="stroke:#808080;stroke-width:1.25;stroke-dasharray:7.0,7.0;"/><polygon fill="#808080" points="734.975,1035.25,724.111,1029.459,728.741,1034.8034,723.3965,1039.4334,734.975,1035.25" style="stroke:#808080;stroke-width:1.25;"/><!--MD5=[326ee70a1144bea5d6597aeda2f8de2b]
link controller.ActionController to models--><path codeLine="56" d="M676.875,852.9375 C697.85,890.575 734.3875,956.1625 757.7,998 " fill="none" id="controller.ActionController-to-models" style="stroke:#808080;stroke-width:1.25;stroke-dasharray:7.0,7.0;"/><polygon fill="#808080" points="760.7625,1003.4875,759.6698,991.225,757.7272,998.024,750.9282,996.0814,760.7625,1003.4875" style="stroke:#808080;stroke-width:1.25;"/><!--MD5=[9baa659d10da5fca4489975f39cf425c]
link controller.UndoController to models--><path codeLine="57" d="M511.4875,852.7125 C568.2125,891.7125 668.9875,961 729.45,1002.5625 " fill="none" id="controller.UndoController-to-models" style="stroke:#808080;stroke-width:1.25;stroke-dasharray:7.0,7.0;"/><polygon fill="#808080" points="734.8125,1006.25,728.3577,995.7668,729.6565,1002.7175,722.7058,1004.0163,734.8125,1006.25" style="stroke:#808080;stroke-width:1.25;"/><!--MD5=[ecaf96c97b45a0c3d5a8418e2634e837]
link controller.RedoController to models--><path codeLine="58" d="M841.925,852.9375 C829.175,890.425 807,955.625 792.7625,997.4875 " fill="none" id="controller.RedoController-to-models" style="stroke:#808080;stroke-width:1.25;stroke-dasharray:7.0,7.0;"/><polygon fill="#808080" points="790.7125,1003.4875,799.079,994.4562,792.7318,997.5727,789.6153,991.2254,790.7125,1003.4875" style="stroke:#808080;stroke-width:1.25;"/><!--MD5=[c51b63ee3c20bc6f8119d1c7ed8593b7]
@startuml
'https://plantuml.com/class-diagram

abstract controller.UseCaseController {
+ session : Session
}
interface controller.AceptorController <<Element>>{
    accept(ControllerVisitor)
}
class controller.PlayController <<ConcreteElement>>
class controller.ResumeController <<ConcreteElement>>
class controller.StartController <<ConcreteElement>>
interface controller.ControllerVisitor <<Visitor>> {
    visit(StartController)
    visit(PlayController)
    visit(ResumeController)
}
class controller.Logic {
}
class Checkers
package views {
}
package models {
}
views .[#Gray].> controller.ControllerVisitor
views .[#Gray].> controller.AceptorController
views .[#Gray].> controller.PlayController
views .[#Gray].> controller.ResumeController
views .[#Gray].> controller.StartController
views .[#Gray].> controller.UseCaseController


Checkers *- - controller.Logic
Checkers *- - views
controller.Logic *- - "*" controller.AceptorController
controller.AceptorController <|- - controller.PlayController
controller.AceptorController <|- - controller.ResumeController
controller.AceptorController <|- - controller.StartController
controller.ControllerVisitor .[#Gray].> controller.PlayController
controller.ControllerVisitor .[#Gray].> controller.StartController
controller.ControllerVisitor .[#Gray].> controller.ResumeController
controller.UseCaseController <|- - controller.StartController
controller.UseCaseController <|- - controller.ResumeController
controller.UseCaseController <|- - controller.PlayController
controller.UseCaseController <|- - controller.UndoController
controller.UseCaseController <|- - controller.RedoController
controller.AceptorController .[#Gray].> controller.ControllerVisitor
controller.UseCaseController <|- - controller.ActionController
controller.PlayController *- - controller.UndoController
controller.PlayController *- - controller.RedoController
controller.PlayController *- - controller.ActionController
controller.Logic .[#Gray].> models
controller.PlayController .[#Gray].> models
controller.UseCaseController .[#Gray].> models
controller.StartController .[#Gray].> models
controller.ResumeController .[#Gray]..> models
controller.ActionController .[#Gray]..> models
controller.UndoController .[#Gray]..> models
controller.RedoController .[#Gray]..> models
@enduml

@startuml

abstract controller.UseCaseController {
+ session : Session
}
interface controller.AceptorController <<Element>>{
    accept(ControllerVisitor)
}
class controller.PlayController <<ConcreteElement>>
class controller.ResumeController <<ConcreteElement>>
class controller.StartController <<ConcreteElement>>
interface controller.ControllerVisitor <<Visitor>> {
    visit(StartController)
    visit(PlayController)
    visit(ResumeController)
}
class controller.Logic {
}
class Checkers
package views {
}
package models {
}
views .[#Gray].> controller.ControllerVisitor
views .[#Gray].> controller.AceptorController
views .[#Gray].> controller.PlayController
views .[#Gray].> controller.ResumeController
views .[#Gray].> controller.StartController
views .[#Gray].> controller.UseCaseController


Checkers *- - controller.Logic
Checkers *- - views
controller.Logic *- - "*" controller.AceptorController
controller.AceptorController <|- - controller.PlayController
controller.AceptorController <|- - controller.ResumeController
controller.AceptorController <|- - controller.StartController
controller.ControllerVisitor .[#Gray].> controller.PlayController
controller.ControllerVisitor .[#Gray].> controller.StartController
controller.ControllerVisitor .[#Gray].> controller.ResumeController
controller.UseCaseController <|- - controller.StartController
controller.UseCaseController <|- - controller.ResumeController
controller.UseCaseController <|- - controller.PlayController
controller.UseCaseController <|- - controller.UndoController
controller.UseCaseController <|- - controller.RedoController
controller.AceptorController .[#Gray].> controller.ControllerVisitor
controller.UseCaseController <|- - controller.ActionController
controller.PlayController *- - controller.UndoController
controller.PlayController *- - controller.RedoController
controller.PlayController *- - controller.ActionController
controller.Logic .[#Gray].> models
controller.PlayController .[#Gray].> models
controller.UseCaseController .[#Gray].> models
controller.StartController .[#Gray].> models
controller.ResumeController .[#Gray]..> models
controller.ActionController .[#Gray]..> models
controller.UndoController .[#Gray]..> models
controller.RedoController .[#Gray]..> models
@enduml

PlantUML version 1.2021.00(Sun Jan 10 11:25:05 CET 2021)
(GPL source distribution)
Java Runtime: OpenJDK Runtime Environment
JVM: OpenJDK 64-Bit Server VM
Default Encoding: Cp1252
Language: en
Country: GB
--></g></svg>