<?xml version="1.0" encoding="UTF-8" standalone="no"?><svg xmlns="http://www.w3.org/2000/svg" xmlns:xlink="http://www.w3.org/1999/xlink" contentScriptType="application/ecmascript" contentStyleType="text/css" height="761.25px" preserveAspectRatio="none" style="width:867px;height:761px;" version="1.1" viewBox="0 0 867 761" width="867.5px" zoomAndPan="magnify"><defs><filter height="300%" id="ff2rjxn7z1dia" width="300%" x="-1" y="-1"><feGaussianBlur result="blurOut" stdDeviation="2.5"/><feColorMatrix in="blurOut" result="blurOut2" type="matrix" values="0 0 0 0 0 0 0 0 0 0 0 0 0 0 0 0 0 0 .4 0"/><feOffset dx="5.0" dy="5.0" in="blurOut2" result="blurOut3"/><feBlend in="SourceGraphic" in2="blurOut3" mode="normal"/></filter></defs><g><!--MD5=[68946827c62017154c3369ec90197e60]
class Checkers--><rect codeLine="1" fill="#FEFECE" filter="url(#ff2rjxn7z1dia)" height="60" id="Checkers" style="stroke:#A80036;stroke-width:1.875;" width="106.25" x="288.125" y="8.75"/><ellipse cx="306.875" cy="28.75" fill="#ADD1B2" rx="13.75" ry="13.75" style="stroke:#A80036;stroke-width:1.25;"/><path d="M309.375,24.375 Q309.6289,23.75 309.9219,23.4375 Q310.2148,23.125 310.5469,23.125 Q311.1328,23.125 311.5039,23.4766 Q311.875,23.8281 311.875,24.6484 L311.875,26.6016 Q311.875,27.4219 311.5234,27.7734 Q311.1719,28.125 310.625,28.125 Q310.1367,28.125 309.8242,27.9102 Q309.5117,27.6953 309.375,27.1289 Q309.3164,26.7383 309.1016,26.5234 Q308.7109,26.1133 308.0078,25.8789 Q307.3047,25.625 306.6016,25.625 Q305.7227,25.625 304.9805,25.9766 Q304.2578,26.3281 303.6914,27.1094 Q303.125,27.8906 303.125,28.9648 L303.125,30.1172 Q303.125,31.4063 304.1797,32.2656 Q305.2344,33.125 307.1094,33.125 Q308.2227,33.125 309.0039,32.8711 Q309.4531,32.7344 309.9609,32.2852 Q310.293,32.0313 310.4688,31.9531 Q310.6445,31.875 310.8594,31.875 Q311.2695,31.875 311.5625,32.207 Q311.875,32.5195 311.875,32.9688 Q311.875,33.3984 311.4453,33.9063 Q310.8203,34.6484 309.8242,35.0586 Q308.5156,35.625 306.9141,35.625 Q305.0391,35.625 303.5352,34.8828 Q302.3242,34.2969 301.4648,33.0273 Q300.625,31.7578 300.625,30.2539 L300.625,28.8867 Q300.625,27.3242 301.3672,25.957 Q302.1289,24.5898 303.4375,23.8672 Q304.7656,23.125 306.25,23.125 Q307.1484,23.125 307.9297,23.4375 Q308.7109,23.75 309.375,24.375 Z " fill="#000000"/><text fill="#000000" font-family="sans-serif" font-size="15" lengthAdjust="spacing" textLength="66.25" x="324.375" y="34.8877">Checkers</text><line style="stroke:#A80036;stroke-width:1.875;" x1="289.375" x2="393.125" y1="48.75" y2="48.75"/><line style="stroke:#A80036;stroke-width:1.875;" x1="289.375" x2="393.125" y1="58.75" y2="58.75"/><!--MD5=[9563755d011c5cec7ec66dc53565a59e]
class Board--><rect codeLine="2" fill="#FEFECE" filter="url(#ff2rjxn7z1dia)" height="60" id="Board" style="stroke:#A80036;stroke-width:1.875;" width="81.25" x="354.375" y="413.75"/><ellipse cx="373.125" cy="433.75" fill="#ADD1B2" rx="13.75" ry="13.75" style="stroke:#A80036;stroke-width:1.25;"/><path d="M375.625,429.375 Q375.8789,428.75 376.1719,428.4375 Q376.4648,428.125 376.7969,428.125 Q377.3828,428.125 377.7539,428.4766 Q378.125,428.8281 378.125,429.6484 L378.125,431.6016 Q378.125,432.4219 377.7734,432.7734 Q377.4219,433.125 376.875,433.125 Q376.3867,433.125 376.0742,432.9102 Q375.7617,432.6953 375.625,432.1289 Q375.5664,431.7383 375.3516,431.5234 Q374.9609,431.1133 374.2578,430.8789 Q373.5547,430.625 372.8516,430.625 Q371.9727,430.625 371.2305,430.9766 Q370.5078,431.3281 369.9414,432.1094 Q369.375,432.8906 369.375,433.9648 L369.375,435.1172 Q369.375,436.4063 370.4297,437.2656 Q371.4844,438.125 373.3594,438.125 Q374.4727,438.125 375.2539,437.8711 Q375.7031,437.7344 376.2109,437.2852 Q376.543,437.0313 376.7188,436.9531 Q376.8945,436.875 377.1094,436.875 Q377.5195,436.875 377.8125,437.207 Q378.125,437.5195 378.125,437.9688 Q378.125,438.3984 377.6953,438.9063 Q377.0703,439.6484 376.0742,440.0586 Q374.7656,440.625 373.1641,440.625 Q371.2891,440.625 369.7852,439.8828 Q368.5742,439.2969 367.7148,438.0273 Q366.875,436.7578 366.875,435.2539 L366.875,433.8867 Q366.875,432.3242 367.6172,430.957 Q368.3789,429.5898 369.6875,428.8672 Q371.0156,428.125 372.5,428.125 Q373.3984,428.125 374.1797,428.4375 Q374.9609,428.75 375.625,429.375 Z " fill="#000000"/><text fill="#000000" font-family="sans-serif" font-size="15" lengthAdjust="spacing" textLength="41.25" x="390.625" y="439.8877">Board</text><line style="stroke:#A80036;stroke-width:1.875;" x1="355.625" x2="434.375" y1="453.75" y2="453.75"/><line style="stroke:#A80036;stroke-width:1.875;" x1="355.625" x2="434.375" y1="463.75" y2="463.75"/><!--MD5=[dd91eae41778c45e12552e5329e240e8]
class Turn--><rect codeLine="3" fill="#FEFECE" filter="url(#ff2rjxn7z1dia)" height="60" id="Turn" style="stroke:#A80036;stroke-width:1.875;" width="71.25" x="254.375" y="143.75"/><ellipse cx="273.125" cy="163.75" fill="#ADD1B2" rx="13.75" ry="13.75" style="stroke:#A80036;stroke-width:1.25;"/><path d="M275.625,159.375 Q275.8789,158.75 276.1719,158.4375 Q276.4648,158.125 276.7969,158.125 Q277.3828,158.125 277.7539,158.4766 Q278.125,158.8281 278.125,159.6484 L278.125,161.6016 Q278.125,162.4219 277.7734,162.7734 Q277.4219,163.125 276.875,163.125 Q276.3867,163.125 276.0742,162.9102 Q275.7617,162.6953 275.625,162.1289 Q275.5664,161.7383 275.3516,161.5234 Q274.9609,161.1133 274.2578,160.8789 Q273.5547,160.625 272.8516,160.625 Q271.9727,160.625 271.2305,160.9766 Q270.5078,161.3281 269.9414,162.1094 Q269.375,162.8906 269.375,163.9648 L269.375,165.1172 Q269.375,166.4063 270.4297,167.2656 Q271.4844,168.125 273.3594,168.125 Q274.4727,168.125 275.2539,167.8711 Q275.7031,167.7344 276.2109,167.2852 Q276.543,167.0313 276.7188,166.9531 Q276.8945,166.875 277.1094,166.875 Q277.5195,166.875 277.8125,167.207 Q278.125,167.5195 278.125,167.9688 Q278.125,168.3984 277.6953,168.9063 Q277.0703,169.6484 276.0742,170.0586 Q274.7656,170.625 273.1641,170.625 Q271.2891,170.625 269.7852,169.8828 Q268.5742,169.2969 267.7148,168.0273 Q266.875,166.7578 266.875,165.2539 L266.875,163.8867 Q266.875,162.3242 267.6172,160.957 Q268.3789,159.5898 269.6875,158.8672 Q271.0156,158.125 272.5,158.125 Q273.3984,158.125 274.1797,158.4375 Q274.9609,158.75 275.625,159.375 Z " fill="#000000"/><text fill="#000000" font-family="sans-serif" font-size="15" lengthAdjust="spacing" textLength="31.25" x="290.625" y="169.8877">Turn</text><line style="stroke:#A80036;stroke-width:1.875;" x1="255.625" x2="324.375" y1="183.75" y2="183.75"/><line style="stroke:#A80036;stroke-width:1.875;" x1="255.625" x2="324.375" y1="193.75" y2="193.75"/><!--MD5=[2cb47ba637a0d19583e6199456f6ad0b]
class Player--><rect codeLine="4" fill="#FEFECE" filter="url(#ff2rjxn7z1dia)" height="60" id="Player" style="stroke:#A80036;stroke-width:1.875;" width="82.5" x="246.25" y="278.75"/><ellipse cx="265" cy="298.75" fill="#ADD1B2" rx="13.75" ry="13.75" style="stroke:#A80036;stroke-width:1.25;"/><path d="M267.5,294.375 Q267.7539,293.75 268.0469,293.4375 Q268.3398,293.125 268.6719,293.125 Q269.2578,293.125 269.6289,293.4766 Q270,293.8281 270,294.6484 L270,296.6016 Q270,297.4219 269.6484,297.7734 Q269.2969,298.125 268.75,298.125 Q268.2617,298.125 267.9492,297.9102 Q267.6367,297.6953 267.5,297.1289 Q267.4414,296.7383 267.2266,296.5234 Q266.8359,296.1133 266.1328,295.8789 Q265.4297,295.625 264.7266,295.625 Q263.8477,295.625 263.1055,295.9766 Q262.3828,296.3281 261.8164,297.1094 Q261.25,297.8906 261.25,298.9648 L261.25,300.1172 Q261.25,301.4063 262.3047,302.2656 Q263.3594,303.125 265.2344,303.125 Q266.3477,303.125 267.1289,302.8711 Q267.5781,302.7344 268.0859,302.2852 Q268.418,302.0313 268.5938,301.9531 Q268.7695,301.875 268.9844,301.875 Q269.3945,301.875 269.6875,302.207 Q270,302.5195 270,302.9688 Q270,303.3984 269.5703,303.9063 Q268.9453,304.6484 267.9492,305.0586 Q266.6406,305.625 265.0391,305.625 Q263.1641,305.625 261.6602,304.8828 Q260.4492,304.2969 259.5898,303.0273 Q258.75,301.7578 258.75,300.2539 L258.75,298.8867 Q258.75,297.3242 259.4922,295.957 Q260.2539,294.5898 261.5625,293.8672 Q262.8906,293.125 264.375,293.125 Q265.2734,293.125 266.0547,293.4375 Q266.8359,293.75 267.5,294.375 Z " fill="#000000"/><text fill="#000000" font-family="sans-serif" font-size="15" lengthAdjust="spacing" textLength="42.5" x="282.5" y="304.8877">Player</text><line style="stroke:#A80036;stroke-width:1.875;" x1="247.5" x2="327.5" y1="318.75" y2="318.75"/><line style="stroke:#A80036;stroke-width:1.875;" x1="247.5" x2="327.5" y1="328.75" y2="328.75"/><!--MD5=[e05bacf3ff4416a0580578814d41bbf6]
class Piece--><rect codeLine="5" fill="#FEFECE" filter="url(#ff2rjxn7z1dia)" height="60" id="Piece" style="stroke:#A80036;stroke-width:1.875;" width="78.75" x="248.125" y="548.75"/><ellipse cx="266.875" cy="568.75" fill="#ADD1B2" rx="13.75" ry="13.75" style="stroke:#A80036;stroke-width:1.25;"/><path d="M269.375,564.375 Q269.6289,563.75 269.9219,563.4375 Q270.2148,563.125 270.5469,563.125 Q271.1328,563.125 271.5039,563.4766 Q271.875,563.8281 271.875,564.6484 L271.875,566.6016 Q271.875,567.4219 271.5234,567.7734 Q271.1719,568.125 270.625,568.125 Q270.1367,568.125 269.8242,567.9102 Q269.5117,567.6953 269.375,567.1289 Q269.3164,566.7383 269.1016,566.5234 Q268.7109,566.1133 268.0078,565.8789 Q267.3047,565.625 266.6016,565.625 Q265.7227,565.625 264.9805,565.9766 Q264.2578,566.3281 263.6914,567.1094 Q263.125,567.8906 263.125,568.9648 L263.125,570.1172 Q263.125,571.4063 264.1797,572.2656 Q265.2344,573.125 267.1094,573.125 Q268.2227,573.125 269.0039,572.8711 Q269.4531,572.7344 269.9609,572.2852 Q270.293,572.0313 270.4688,571.9531 Q270.6445,571.875 270.8594,571.875 Q271.2695,571.875 271.5625,572.207 Q271.875,572.5195 271.875,572.9688 Q271.875,573.3984 271.4453,573.9063 Q270.8203,574.6484 269.8242,575.0586 Q268.5156,575.625 266.9141,575.625 Q265.0391,575.625 263.5352,574.8828 Q262.3242,574.2969 261.4648,573.0273 Q260.625,571.7578 260.625,570.2539 L260.625,568.8867 Q260.625,567.3242 261.3672,565.957 Q262.1289,564.5898 263.4375,563.8672 Q264.7656,563.125 266.25,563.125 Q267.1484,563.125 267.9297,563.4375 Q268.7109,563.75 269.375,564.375 Z " fill="#000000"/><text fill="#000000" font-family="sans-serif" font-size="15" lengthAdjust="spacing" textLength="38.75" x="284.375" y="574.8877">Piece</text><line style="stroke:#A80036;stroke-width:1.875;" x1="249.375" x2="325.625" y1="588.75" y2="588.75"/><line style="stroke:#A80036;stroke-width:1.875;" x1="249.375" x2="325.625" y1="598.75" y2="598.75"/><!--MD5=[8c7d7abc12e214c3cc12c9ab70edee11]
class Coordinate--><rect codeLine="6" fill="#FEFECE" filter="url(#ff2rjxn7z1dia)" height="60" id="Coordinate" style="stroke:#A80036;stroke-width:1.875;" width="116.25" x="434.375" y="683.75"/><ellipse cx="453.125" cy="703.75" fill="#ADD1B2" rx="13.75" ry="13.75" style="stroke:#A80036;stroke-width:1.25;"/><path d="M455.625,699.375 Q455.8789,698.75 456.1719,698.4375 Q456.4648,698.125 456.7969,698.125 Q457.3828,698.125 457.7539,698.4766 Q458.125,698.8281 458.125,699.6484 L458.125,701.6016 Q458.125,702.4219 457.7734,702.7734 Q457.4219,703.125 456.875,703.125 Q456.3867,703.125 456.0742,702.9102 Q455.7617,702.6953 455.625,702.1289 Q455.5664,701.7383 455.3516,701.5234 Q454.9609,701.1133 454.2578,700.8789 Q453.5547,700.625 452.8516,700.625 Q451.9727,700.625 451.2305,700.9766 Q450.5078,701.3281 449.9414,702.1094 Q449.375,702.8906 449.375,703.9648 L449.375,705.1172 Q449.375,706.4063 450.4297,707.2656 Q451.4844,708.125 453.3594,708.125 Q454.4727,708.125 455.2539,707.8711 Q455.7031,707.7344 456.2109,707.2852 Q456.543,707.0313 456.7188,706.9531 Q456.8945,706.875 457.1094,706.875 Q457.5195,706.875 457.8125,707.207 Q458.125,707.5195 458.125,707.9688 Q458.125,708.3984 457.6953,708.9063 Q457.0703,709.6484 456.0742,710.0586 Q454.7656,710.625 453.1641,710.625 Q451.2891,710.625 449.7852,709.8828 Q448.5742,709.2969 447.7148,708.0273 Q446.875,706.7578 446.875,705.2539 L446.875,703.8867 Q446.875,702.3242 447.6172,700.957 Q448.3789,699.5898 449.6875,698.8672 Q451.0156,698.125 452.5,698.125 Q453.3984,698.125 454.1797,698.4375 Q454.9609,698.75 455.625,699.375 Z " fill="#000000"/><text fill="#000000" font-family="sans-serif" font-size="15" lengthAdjust="spacing" textLength="76.25" x="470.625" y="709.8877">Coordinate</text><line style="stroke:#A80036;stroke-width:1.875;" x1="435.625" x2="549.375" y1="723.75" y2="723.75"/><line style="stroke:#A80036;stroke-width:1.875;" x1="435.625" x2="549.375" y1="733.75" y2="733.75"/><!--MD5=[5655ee3e2a0d028d03fe20f829576392]
class Square--><rect codeLine="7" fill="#FEFECE" filter="url(#ff2rjxn7z1dia)" height="60" id="Square" style="stroke:#A80036;stroke-width:1.875;" width="90" x="371.25" y="548.75"/><ellipse cx="390" cy="568.75" fill="#ADD1B2" rx="13.75" ry="13.75" style="stroke:#A80036;stroke-width:1.25;"/><path d="M392.5,564.375 Q392.7539,563.75 393.0469,563.4375 Q393.3398,563.125 393.6719,563.125 Q394.2578,563.125 394.6289,563.4766 Q395,563.8281 395,564.6484 L395,566.6016 Q395,567.4219 394.6484,567.7734 Q394.2969,568.125 393.75,568.125 Q393.2617,568.125 392.9492,567.9102 Q392.6367,567.6953 392.5,567.1289 Q392.4414,566.7383 392.2266,566.5234 Q391.8359,566.1133 391.1328,565.8789 Q390.4297,565.625 389.7266,565.625 Q388.8477,565.625 388.1055,565.9766 Q387.3828,566.3281 386.8164,567.1094 Q386.25,567.8906 386.25,568.9648 L386.25,570.1172 Q386.25,571.4063 387.3047,572.2656 Q388.3594,573.125 390.2344,573.125 Q391.3477,573.125 392.1289,572.8711 Q392.5781,572.7344 393.0859,572.2852 Q393.418,572.0313 393.5938,571.9531 Q393.7695,571.875 393.9844,571.875 Q394.3945,571.875 394.6875,572.207 Q395,572.5195 395,572.9688 Q395,573.3984 394.5703,573.9063 Q393.9453,574.6484 392.9492,575.0586 Q391.6406,575.625 390.0391,575.625 Q388.1641,575.625 386.6602,574.8828 Q385.4492,574.2969 384.5898,573.0273 Q383.75,571.7578 383.75,570.2539 L383.75,568.8867 Q383.75,567.3242 384.4922,565.957 Q385.2539,564.5898 386.5625,563.8672 Q387.8906,563.125 389.375,563.125 Q390.2734,563.125 391.0547,563.4375 Q391.8359,563.75 392.5,564.375 Z " fill="#000000"/><text fill="#000000" font-family="sans-serif" font-size="15" lengthAdjust="spacing" textLength="50" x="407.5" y="574.8877">Square</text><line style="stroke:#A80036;stroke-width:1.875;" x1="372.5" x2="460" y1="588.75" y2="588.75"/><line style="stroke:#A80036;stroke-width:1.875;" x1="372.5" x2="460" y1="598.75" y2="598.75"/><!--MD5=[bc87bf052131b9ca3b54b8ba84b5b110]
class Movement--><rect codeLine="8" fill="#FEFECE" filter="url(#ff2rjxn7z1dia)" height="60" id="Movement" style="stroke:#A80036;stroke-width:1.875;" width="110" x="480" y="413.75"/><ellipse cx="498.75" cy="433.75" fill="#ADD1B2" rx="13.75" ry="13.75" style="stroke:#A80036;stroke-width:1.25;"/><path d="M501.25,429.375 Q501.5039,428.75 501.7969,428.4375 Q502.0898,428.125 502.4219,428.125 Q503.0078,428.125 503.3789,428.4766 Q503.75,428.8281 503.75,429.6484 L503.75,431.6016 Q503.75,432.4219 503.3984,432.7734 Q503.0469,433.125 502.5,433.125 Q502.0117,433.125 501.6992,432.9102 Q501.3867,432.6953 501.25,432.1289 Q501.1914,431.7383 500.9766,431.5234 Q500.5859,431.1133 499.8828,430.8789 Q499.1797,430.625 498.4766,430.625 Q497.5977,430.625 496.8555,430.9766 Q496.1328,431.3281 495.5664,432.1094 Q495,432.8906 495,433.9648 L495,435.1172 Q495,436.4063 496.0547,437.2656 Q497.1094,438.125 498.9844,438.125 Q500.0977,438.125 500.8789,437.8711 Q501.3281,437.7344 501.8359,437.2852 Q502.168,437.0313 502.3438,436.9531 Q502.5195,436.875 502.7344,436.875 Q503.1445,436.875 503.4375,437.207 Q503.75,437.5195 503.75,437.9688 Q503.75,438.3984 503.3203,438.9063 Q502.6953,439.6484 501.6992,440.0586 Q500.3906,440.625 498.7891,440.625 Q496.9141,440.625 495.4102,439.8828 Q494.1992,439.2969 493.3398,438.0273 Q492.5,436.7578 492.5,435.2539 L492.5,433.8867 Q492.5,432.3242 493.2422,430.957 Q494.0039,429.5898 495.3125,428.8672 Q496.6406,428.125 498.125,428.125 Q499.0234,428.125 499.8047,428.4375 Q500.5859,428.75 501.25,429.375 Z " fill="#000000"/><text fill="#000000" font-family="sans-serif" font-size="15" lengthAdjust="spacing" textLength="70" x="516.25" y="439.8877">Movement</text><line style="stroke:#A80036;stroke-width:1.875;" x1="481.25" x2="588.75" y1="453.75" y2="453.75"/><line style="stroke:#A80036;stroke-width:1.875;" x1="481.25" x2="588.75" y1="463.75" y2="463.75"/><!--MD5=[d23964c4c104f3777a50b86b14e8b51a]
class SimpleMovement--><rect codeLine="9" fill="#FEFECE" filter="url(#ff2rjxn7z1dia)" height="60" id="SimpleMovement" style="stroke:#A80036;stroke-width:1.875;" width="158.75" x="691.875" y="548.75"/><ellipse cx="710.625" cy="568.75" fill="#ADD1B2" rx="13.75" ry="13.75" style="stroke:#A80036;stroke-width:1.25;"/><path d="M713.125,564.375 Q713.3789,563.75 713.6719,563.4375 Q713.9648,563.125 714.2969,563.125 Q714.8828,563.125 715.2539,563.4766 Q715.625,563.8281 715.625,564.6484 L715.625,566.6016 Q715.625,567.4219 715.2734,567.7734 Q714.9219,568.125 714.375,568.125 Q713.8867,568.125 713.5742,567.9102 Q713.2617,567.6953 713.125,567.1289 Q713.0664,566.7383 712.8516,566.5234 Q712.4609,566.1133 711.7578,565.8789 Q711.0547,565.625 710.3516,565.625 Q709.4727,565.625 708.7305,565.9766 Q708.0078,566.3281 707.4414,567.1094 Q706.875,567.8906 706.875,568.9648 L706.875,570.1172 Q706.875,571.4063 707.9297,572.2656 Q708.9844,573.125 710.8594,573.125 Q711.9727,573.125 712.7539,572.8711 Q713.2031,572.7344 713.7109,572.2852 Q714.043,572.0313 714.2188,571.9531 Q714.3945,571.875 714.6094,571.875 Q715.0195,571.875 715.3125,572.207 Q715.625,572.5195 715.625,572.9688 Q715.625,573.3984 715.1953,573.9063 Q714.5703,574.6484 713.5742,575.0586 Q712.2656,575.625 710.6641,575.625 Q708.7891,575.625 707.2852,574.8828 Q706.0742,574.2969 705.2148,573.0273 Q704.375,571.7578 704.375,570.2539 L704.375,568.8867 Q704.375,567.3242 705.1172,565.957 Q705.8789,564.5898 707.1875,563.8672 Q708.5156,563.125 710,563.125 Q710.8984,563.125 711.6797,563.4375 Q712.4609,563.75 713.125,564.375 Z " fill="#000000"/><text fill="#000000" font-family="sans-serif" font-size="15" lengthAdjust="spacing" textLength="118.75" x="728.125" y="574.8877">SimpleMovement</text><line style="stroke:#A80036;stroke-width:1.875;" x1="693.125" x2="849.375" y1="588.75" y2="588.75"/><line style="stroke:#A80036;stroke-width:1.875;" x1="693.125" x2="849.375" y1="598.75" y2="598.75"/><!--MD5=[f4a32381fcdecdb12ee57466284ec1bf]
class DualMovement--><rect codeLine="10" fill="#FEFECE" filter="url(#ff2rjxn7z1dia)" height="60" id="DualMovement" style="stroke:#A80036;stroke-width:1.875;" width="142.5" x="505" y="548.75"/><ellipse cx="523.75" cy="568.75" fill="#ADD1B2" rx="13.75" ry="13.75" style="stroke:#A80036;stroke-width:1.25;"/><path d="M526.25,564.375 Q526.5039,563.75 526.7969,563.4375 Q527.0898,563.125 527.4219,563.125 Q528.0078,563.125 528.3789,563.4766 Q528.75,563.8281 528.75,564.6484 L528.75,566.6016 Q528.75,567.4219 528.3984,567.7734 Q528.0469,568.125 527.5,568.125 Q527.0117,568.125 526.6992,567.9102 Q526.3867,567.6953 526.25,567.1289 Q526.1914,566.7383 525.9766,566.5234 Q525.5859,566.1133 524.8828,565.8789 Q524.1797,565.625 523.4766,565.625 Q522.5977,565.625 521.8555,565.9766 Q521.1328,566.3281 520.5664,567.1094 Q520,567.8906 520,568.9648 L520,570.1172 Q520,571.4063 521.0547,572.2656 Q522.1094,573.125 523.9844,573.125 Q525.0977,573.125 525.8789,572.8711 Q526.3281,572.7344 526.8359,572.2852 Q527.168,572.0313 527.3438,571.9531 Q527.5195,571.875 527.7344,571.875 Q528.1445,571.875 528.4375,572.207 Q528.75,572.5195 528.75,572.9688 Q528.75,573.3984 528.3203,573.9063 Q527.6953,574.6484 526.6992,575.0586 Q525.3906,575.625 523.7891,575.625 Q521.9141,575.625 520.4102,574.8828 Q519.1992,574.2969 518.3398,573.0273 Q517.5,571.7578 517.5,570.2539 L517.5,568.8867 Q517.5,567.3242 518.2422,565.957 Q519.0039,564.5898 520.3125,563.8672 Q521.6406,563.125 523.125,563.125 Q524.0234,563.125 524.8047,563.4375 Q525.5859,563.75 526.25,564.375 Z " fill="#000000"/><text fill="#000000" font-family="sans-serif" font-size="15" lengthAdjust="spacing" textLength="102.5" x="541.25" y="574.8877">DualMovement</text><line style="stroke:#A80036;stroke-width:1.875;" x1="506.25" x2="646.25" y1="588.75" y2="588.75"/><line style="stroke:#A80036;stroke-width:1.875;" x1="506.25" x2="646.25" y1="598.75" y2="598.75"/><!--MD5=[18eee71c88ab61f27581b8cbdd3ef5ee]
class Color--><rect codeLine="11" fill="#FEFECE" filter="url(#ff2rjxn7z1dia)" height="60" id="Color" style="stroke:#A80036;stroke-width:1.875;" width="77.5" x="312.5" y="683.75"/><ellipse cx="331.25" cy="703.75" fill="#ADD1B2" rx="13.75" ry="13.75" style="stroke:#A80036;stroke-width:1.25;"/><path d="M333.75,699.375 Q334.0039,698.75 334.2969,698.4375 Q334.5898,698.125 334.9219,698.125 Q335.5078,698.125 335.8789,698.4766 Q336.25,698.8281 336.25,699.6484 L336.25,701.6016 Q336.25,702.4219 335.8984,702.7734 Q335.5469,703.125 335,703.125 Q334.5117,703.125 334.1992,702.9102 Q333.8867,702.6953 333.75,702.1289 Q333.6914,701.7383 333.4766,701.5234 Q333.0859,701.1133 332.3828,700.8789 Q331.6797,700.625 330.9766,700.625 Q330.0977,700.625 329.3555,700.9766 Q328.6328,701.3281 328.0664,702.1094 Q327.5,702.8906 327.5,703.9648 L327.5,705.1172 Q327.5,706.4063 328.5547,707.2656 Q329.6094,708.125 331.4844,708.125 Q332.5977,708.125 333.3789,707.8711 Q333.8281,707.7344 334.3359,707.2852 Q334.668,707.0313 334.8438,706.9531 Q335.0195,706.875 335.2344,706.875 Q335.6445,706.875 335.9375,707.207 Q336.25,707.5195 336.25,707.9688 Q336.25,708.3984 335.8203,708.9063 Q335.1953,709.6484 334.1992,710.0586 Q332.8906,710.625 331.2891,710.625 Q329.4141,710.625 327.9102,709.8828 Q326.6992,709.2969 325.8398,708.0273 Q325,706.7578 325,705.2539 L325,703.8867 Q325,702.3242 325.7422,700.957 Q326.5039,699.5898 327.8125,698.8672 Q329.1406,698.125 330.625,698.125 Q331.5234,698.125 332.3047,698.4375 Q333.0859,698.75 333.75,699.375 Z " fill="#000000"/><text fill="#000000" font-family="sans-serif" font-size="15" lengthAdjust="spacing" textLength="37.5" x="348.75" y="709.8877">Color</text><line style="stroke:#A80036;stroke-width:1.875;" x1="313.75" x2="388.75" y1="723.75" y2="723.75"/><line style="stroke:#A80036;stroke-width:1.875;" x1="313.75" x2="388.75" y1="733.75" y2="733.75"/><!--MD5=[0992d3fdc9d3d7c02b735131bb70871d]
class Goal--><rect codeLine="12" fill="#FEFECE" filter="url(#ff2rjxn7z1dia)" height="60" id="Goal" style="stroke:#A80036;stroke-width:1.875;" width="72.5" x="148.75" y="413.75"/><ellipse cx="167.5" cy="433.75" fill="#ADD1B2" rx="13.75" ry="13.75" style="stroke:#A80036;stroke-width:1.25;"/><path d="M170,429.375 Q170.2539,428.75 170.5469,428.4375 Q170.8398,428.125 171.1719,428.125 Q171.7578,428.125 172.1289,428.4766 Q172.5,428.8281 172.5,429.6484 L172.5,431.6016 Q172.5,432.4219 172.1484,432.7734 Q171.7969,433.125 171.25,433.125 Q170.7617,433.125 170.4492,432.9102 Q170.1367,432.6953 170,432.1289 Q169.9414,431.7383 169.7266,431.5234 Q169.3359,431.1133 168.6328,430.8789 Q167.9297,430.625 167.2266,430.625 Q166.3477,430.625 165.6055,430.9766 Q164.8828,431.3281 164.3164,432.1094 Q163.75,432.8906 163.75,433.9648 L163.75,435.1172 Q163.75,436.4063 164.8047,437.2656 Q165.8594,438.125 167.7344,438.125 Q168.8477,438.125 169.6289,437.8711 Q170.0781,437.7344 170.5859,437.2852 Q170.918,437.0313 171.0938,436.9531 Q171.2695,436.875 171.4844,436.875 Q171.8945,436.875 172.1875,437.207 Q172.5,437.5195 172.5,437.9688 Q172.5,438.3984 172.0703,438.9063 Q171.4453,439.6484 170.4492,440.0586 Q169.1406,440.625 167.5391,440.625 Q165.6641,440.625 164.1602,439.8828 Q162.9492,439.2969 162.0898,438.0273 Q161.25,436.7578 161.25,435.2539 L161.25,433.8867 Q161.25,432.3242 161.9922,430.957 Q162.7539,429.5898 164.0625,428.8672 Q165.3906,428.125 166.875,428.125 Q167.7734,428.125 168.5547,428.4375 Q169.3359,428.75 170,429.375 Z " fill="#000000"/><text fill="#000000" font-family="sans-serif" font-size="15" lengthAdjust="spacing" textLength="32.5" x="185" y="439.8877">Goal</text><line style="stroke:#A80036;stroke-width:1.875;" x1="150" x2="220" y1="453.75" y2="453.75"/><line style="stroke:#A80036;stroke-width:1.875;" x1="150" x2="220" y1="463.75" y2="463.75"/><!--MD5=[2e12bb710a8f48d354fc99b663ad60cb]
class RemoveAllRivalPieces--><rect codeLine="13" fill="#FEFECE" filter="url(#ff2rjxn7z1dia)" height="60" id="RemoveAllRivalPieces" style="stroke:#A80036;stroke-width:1.875;" width="195" x="8.75" y="548.75"/><ellipse cx="27.5" cy="568.75" fill="#ADD1B2" rx="13.75" ry="13.75" style="stroke:#A80036;stroke-width:1.25;"/><path d="M30,564.375 Q30.2539,563.75 30.5469,563.4375 Q30.8398,563.125 31.1719,563.125 Q31.7578,563.125 32.1289,563.4766 Q32.5,563.8281 32.5,564.6484 L32.5,566.6016 Q32.5,567.4219 32.1484,567.7734 Q31.7969,568.125 31.25,568.125 Q30.7617,568.125 30.4492,567.9102 Q30.1367,567.6953 30,567.1289 Q29.9414,566.7383 29.7266,566.5234 Q29.3359,566.1133 28.6328,565.8789 Q27.9297,565.625 27.2266,565.625 Q26.3477,565.625 25.6055,565.9766 Q24.8828,566.3281 24.3164,567.1094 Q23.75,567.8906 23.75,568.9648 L23.75,570.1172 Q23.75,571.4063 24.8047,572.2656 Q25.8594,573.125 27.7344,573.125 Q28.8477,573.125 29.6289,572.8711 Q30.0781,572.7344 30.5859,572.2852 Q30.918,572.0313 31.0938,571.9531 Q31.2695,571.875 31.4844,571.875 Q31.8945,571.875 32.1875,572.207 Q32.5,572.5195 32.5,572.9688 Q32.5,573.3984 32.0703,573.9063 Q31.4453,574.6484 30.4492,575.0586 Q29.1406,575.625 27.5391,575.625 Q25.6641,575.625 24.1602,574.8828 Q22.9492,574.2969 22.0898,573.0273 Q21.25,571.7578 21.25,570.2539 L21.25,568.8867 Q21.25,567.3242 21.9922,565.957 Q22.7539,564.5898 24.0625,563.8672 Q25.3906,563.125 26.875,563.125 Q27.7734,563.125 28.5547,563.4375 Q29.3359,563.75 30,564.375 Z " fill="#000000"/><text fill="#000000" font-family="sans-serif" font-size="15" lengthAdjust="spacing" textLength="155" x="45" y="574.8877">RemoveAllRivalPieces</text><line style="stroke:#A80036;stroke-width:1.875;" x1="10" x2="202.5" y1="588.75" y2="588.75"/><line style="stroke:#A80036;stroke-width:1.875;" x1="10" x2="202.5" y1="598.75" y2="598.75"/><!--MD5=[b5524c1f1cf4f7aeecdc9b5af5b05d87]
class Queen--><rect fill="#FEFECE" filter="url(#ff2rjxn7z1dia)" height="60" id="Queen" style="stroke:#A80036;stroke-width:1.875;" width="86.25" x="49.375" y="683.75"/><ellipse cx="68.125" cy="703.75" fill="#ADD1B2" rx="13.75" ry="13.75" style="stroke:#A80036;stroke-width:1.25;"/><path d="M70.625,699.375 Q70.8789,698.75 71.1719,698.4375 Q71.4648,698.125 71.7969,698.125 Q72.3828,698.125 72.7539,698.4766 Q73.125,698.8281 73.125,699.6484 L73.125,701.6016 Q73.125,702.4219 72.7734,702.7734 Q72.4219,703.125 71.875,703.125 Q71.3867,703.125 71.0742,702.9102 Q70.7617,702.6953 70.625,702.1289 Q70.5664,701.7383 70.3516,701.5234 Q69.9609,701.1133 69.2578,700.8789 Q68.5547,700.625 67.8516,700.625 Q66.9727,700.625 66.2305,700.9766 Q65.5078,701.3281 64.9414,702.1094 Q64.375,702.8906 64.375,703.9648 L64.375,705.1172 Q64.375,706.4063 65.4297,707.2656 Q66.4844,708.125 68.3594,708.125 Q69.4727,708.125 70.2539,707.8711 Q70.7031,707.7344 71.2109,707.2852 Q71.543,707.0313 71.7188,706.9531 Q71.8945,706.875 72.1094,706.875 Q72.5195,706.875 72.8125,707.207 Q73.125,707.5195 73.125,707.9688 Q73.125,708.3984 72.6953,708.9063 Q72.0703,709.6484 71.0742,710.0586 Q69.7656,710.625 68.1641,710.625 Q66.2891,710.625 64.7852,709.8828 Q63.5742,709.2969 62.7148,708.0273 Q61.875,706.7578 61.875,705.2539 L61.875,703.8867 Q61.875,702.3242 62.6172,700.957 Q63.3789,699.5898 64.6875,698.8672 Q66.0156,698.125 67.5,698.125 Q68.3984,698.125 69.1797,698.4375 Q69.9609,698.75 70.625,699.375 Z " fill="#000000"/><text fill="#000000" font-family="sans-serif" font-size="15" lengthAdjust="spacing" textLength="46.25" x="85.625" y="709.8877">Queen</text><line style="stroke:#A80036;stroke-width:1.875;" x1="50.625" x2="134.375" y1="723.75" y2="723.75"/><line style="stroke:#A80036;stroke-width:1.875;" x1="50.625" x2="134.375" y1="733.75" y2="733.75"/><!--MD5=[39e23fe2798b051d8bbe8c522422b7b6]
class Simple--><rect fill="#FEFECE" filter="url(#ff2rjxn7z1dia)" height="60" id="Simple" style="stroke:#A80036;stroke-width:1.875;" width="88.75" x="179.375" y="683.75"/><ellipse cx="198.125" cy="703.75" fill="#ADD1B2" rx="13.75" ry="13.75" style="stroke:#A80036;stroke-width:1.25;"/><path d="M200.625,699.375 Q200.8789,698.75 201.1719,698.4375 Q201.4648,698.125 201.7969,698.125 Q202.3828,698.125 202.7539,698.4766 Q203.125,698.8281 203.125,699.6484 L203.125,701.6016 Q203.125,702.4219 202.7734,702.7734 Q202.4219,703.125 201.875,703.125 Q201.3867,703.125 201.0742,702.9102 Q200.7617,702.6953 200.625,702.1289 Q200.5664,701.7383 200.3516,701.5234 Q199.9609,701.1133 199.2578,700.8789 Q198.5547,700.625 197.8516,700.625 Q196.9727,700.625 196.2305,700.9766 Q195.5078,701.3281 194.9414,702.1094 Q194.375,702.8906 194.375,703.9648 L194.375,705.1172 Q194.375,706.4063 195.4297,707.2656 Q196.4844,708.125 198.3594,708.125 Q199.4727,708.125 200.2539,707.8711 Q200.7031,707.7344 201.2109,707.2852 Q201.543,707.0313 201.7188,706.9531 Q201.8945,706.875 202.1094,706.875 Q202.5195,706.875 202.8125,707.207 Q203.125,707.5195 203.125,707.9688 Q203.125,708.3984 202.6953,708.9063 Q202.0703,709.6484 201.0742,710.0586 Q199.7656,710.625 198.1641,710.625 Q196.2891,710.625 194.7852,709.8828 Q193.5742,709.2969 192.7148,708.0273 Q191.875,706.7578 191.875,705.2539 L191.875,703.8867 Q191.875,702.3242 192.6172,700.957 Q193.3789,699.5898 194.6875,698.8672 Q196.0156,698.125 197.5,698.125 Q198.3984,698.125 199.1797,698.4375 Q199.9609,698.75 200.625,699.375 Z " fill="#000000"/><text fill="#000000" font-family="sans-serif" font-size="15" lengthAdjust="spacing" textLength="48.75" x="215.625" y="709.8877">Simple</text><line style="stroke:#A80036;stroke-width:1.875;" x1="180.625" x2="266.875" y1="723.75" y2="723.75"/><line style="stroke:#A80036;stroke-width:1.875;" x1="180.625" x2="266.875" y1="733.75" y2="733.75"/><!--MD5=[25cb7c499b7bc9a69201ca9368cea726]
reverse link Checkers to Board--><path codeLine="15" d="M347.2875,85.25 C358.4125,168.5125 381.825,343.825 391.1,413.275 " fill="none" id="Checkers-backto-Board" style="stroke:#A80036;stroke-width:1.25;"/><polygon fill="#A80036" points="345.1125,68.95,341.1541,77.0482,347.1068,83.8168,351.0653,75.7186,345.1125,68.95" style="stroke:#A80036;stroke-width:1.25;"/><!--MD5=[3d25ae24ed7321dca4c0c4d29357044c]
reverse link Checkers to Turn--><path codeLine="16" d="M324.1375,84.25 C316.6125,103.7125 307.975,126.025 301.275,143.35 " fill="none" id="Checkers-backto-Turn" style="stroke:#A80036;stroke-width:1.25;"/><polygon fill="#A80036" points="330.125,68.75,322.7528,73.9366,324.705,82.7366,332.0772,77.5499,330.125,68.75" style="stroke:#A80036;stroke-width:1.25;"/><text fill="#000000" font-family="sans-serif" font-size="16.25" lengthAdjust="spacing" textLength="8.75" x="294.2069" y="130.425">2</text><!--MD5=[c6b41680f949d949cbe7e94f69664b17]
reverse link Turn to Player--><path codeLine="17" d="M289.1375,220.425 C288.775,239.6 288.375,261.375 288.05,278.35 " fill="none" id="Turn-backto-Player" style="stroke:#A80036;stroke-width:1.25;"/><polygon fill="#A80036" points="289.4625,203.75,284.3233,211.1553,289.1823,218.7474,294.3215,211.3421,289.4625,203.75" style="stroke:#A80036;stroke-width:1.25;"/><text fill="#000000" font-family="sans-serif" font-size="16.25" lengthAdjust="spacing" textLength="8.75" x="278.3677" y="265.425">2</text><!--MD5=[a1c097679cea4b0a6c8d4d69e5968e89]
reverse link Player to Goal--><path codeLine="18" d="M255.0625,351.925 C239.6,371.9125 221.4875,395.3375 207.55,413.35 " fill="none" id="Player-backto-Goal" style="stroke:#A80036;stroke-width:1.25;"/><polygon fill="#FFFFFF" points="265.2625,338.75,256.7186,341.6227,256.0842,350.6142,264.6281,347.7415,265.2625,338.75" style="stroke:#A80036;stroke-width:1.25;"/><!--MD5=[1cbbd7df2bc0105446d2f7f1d5039891]
reverse link Goal to RemoveAllRivalPieces--><path codeLine="19" d="M154.825,495.7625 C144.25,513.5625 132.7375,532.9375 123.575,548.35 " fill="none" id="Goal-backto-RemoveAllRivalPieces" style="stroke:#A80036;stroke-width:1.25;"/><polygon fill="none" points="147.6125,490.775,167.9125,473.75,162.6625,499.7125,147.6125,490.775" style="stroke:#A80036;stroke-width:1.25;"/><!--MD5=[7b500aafe672395d5f1b349a7dc162af]
link Goal to Piece--><path codeLine="20" d="M207.2375,473.75 C222.9875,494.1 244.1625,521.4875 260.8125,543.0125 " fill="none" id="Goal-to-Piece" style="stroke:#A80036;stroke-width:1.25;stroke-dasharray:7.0,7.0;"/><polygon fill="#A80036" points="264.95,548.35,262.0079,536.3956,261.1203,543.4108,254.1052,542.5231,264.95,548.35" style="stroke:#A80036;stroke-width:1.25;"/><!--MD5=[ec77ffabf215c452de535e5e27276e25]
reverse link Player to Piece--><path codeLine="21" d="M287.5,355.675 C287.5,410.85 287.5,501.9875 287.5,548.4 " fill="none" id="Player-backto-Piece" style="stroke:#A80036;stroke-width:1.25;"/><polygon fill="#A80036" points="287.5,339.1375,282.5,346.6375,287.5,354.1375,292.5,346.6375,287.5,339.1375" style="stroke:#A80036;stroke-width:1.25;"/><text fill="#000000" font-family="sans-serif" font-size="16.25" lengthAdjust="spacing" textLength="17.5" x="267.7578" y="534.9855">20</text><!--MD5=[a99a08d015fd9096398cf108430036a5]
reverse link Board to Piece--><path codeLine="22" d="M360.975,486.925 C344.7625,506.9125 325.7625,530.3375 311.15,548.35 " fill="none" id="Board-backto-Piece" style="stroke:#A80036;stroke-width:1.25;"/><polygon fill="#A80036" points="371.675,473.75,363.0664,476.4225,362.2223,485.3968,370.8309,482.7243,371.675,473.75" style="stroke:#A80036;stroke-width:1.25;"/><text fill="#000000" font-family="sans-serif" font-size="16.25" lengthAdjust="spacing" textLength="17.5" x="297.2819" y="535.425">40</text><!--MD5=[3bc098bd6ca1478293fc2fb2d3c76112]
reverse link Board to Square--><path codeLine="23" d="M402.1875,489.8375 C405.2875,509.1625 408.825,531.2 411.575,548.35 " fill="none" id="Board-backto-Square" style="stroke:#A80036;stroke-width:1.25;"/><polygon fill="#A80036" points="399.6125,473.75,395.8616,481.9464,401.9849,488.5612,405.7358,480.3648,399.6125,473.75" style="stroke:#A80036;stroke-width:1.25;"/><text fill="#000000" font-family="sans-serif" font-size="16.25" lengthAdjust="spacing" textLength="26.25" x="380.9863" y="535.425">8x8</text><!--MD5=[2f378bb2f56593d68624f1790be1dbac]
link Piece to Color--><path codeLine="24" d="M307.8472,622.2638 C307.8472,622.2638 323.1375,654.0625 330.075,668.475 " fill="none" id="Piece-Color" style="stroke:#A80036;stroke-width:1.25;"/><polygon fill="#A80036" points="337.225,683.35,336.8473,671.0447,334.5126,677.7192,327.8381,675.3845,337.225,683.35" style="stroke:#A80036;stroke-width:1.25;"/><line style="stroke:#A80036;stroke-width:1.25;" x1="334.5126" x2="330.175" y1="677.7192" y2="668.7063"/><polygon fill="#A80036" points="301.3375,608.75,300.0877,617.6768,307.8472,622.2638,309.097,613.337,301.3375,608.75" style="stroke:#A80036;stroke-width:1.25;"/><!--MD5=[1e5622e419e61827803d8907ecf40cdc]
link Player to Movement--><path codeLine="25" d="M328.925,332.175 C368.825,353.5375 429.6375,386.0875 474.8625,410.3125 " fill="none" id="Player-to-Movement" style="stroke:#A80036;stroke-width:1.25;stroke-dasharray:7.0,7.0;"/><polygon fill="#A80036" points="480.8625,413.5125,473.2939,403.8028,475.3493,410.5685,468.5835,412.624,480.8625,413.5125" style="stroke:#A80036;stroke-width:1.25;"/><!--MD5=[5409cfb9ef738458e1953dbab7ffe2da]
link Movement to Piece--><path codeLine="26" d="M481.3,473.75 C436.8,497.575 374.3,531.0375 332.425,553.45 " fill="none" id="Movement-to-Piece" style="stroke:#A80036;stroke-width:1.25;stroke-dasharray:7.0,7.0;"/><polygon fill="#A80036" points="326.9125,556.4,339.1903,555.4949,332.4217,553.4486,334.468,546.6801,326.9125,556.4" style="stroke:#A80036;stroke-width:1.25;"/><!--MD5=[d3c8f1fe25b01fae3b918abbea521f53]
link Movement to Square--><path codeLine="27" d="M509.2375,473.75 C490.8375,494.275 466.0375,521.95 446.675,543.55 " fill="none" id="Movement-to-Square" style="stroke:#A80036;stroke-width:1.25;stroke-dasharray:7.0,7.0;"/><polygon fill="#A80036" points="442.375,548.35,453.6066,543.3088,446.5461,543.6955,446.1594,536.635,442.375,548.35" style="stroke:#A80036;stroke-width:1.25;"/><!--MD5=[1826838ac213f6e0631603ad76d4103b]
reverse link Movement to SimpleMovement--><path codeLine="28" d="M608.3,486.1125 C644.4125,506.3625 687.0625,530.2875 719.675,548.575 " fill="none" id="Movement-backto-SimpleMovement" style="stroke:#A80036;stroke-width:1.25;"/><polygon fill="none" points="603.7875,493.6125,586.2625,473.75,612.35,478.35,603.7875,493.6125" style="stroke:#A80036;stroke-width:1.25;"/><!--MD5=[91f1b62b8f3576dddeeab00353136479]
reverse link Movement to DualMovement--><path codeLine="29" d="M551.55,498.175 C556.8875,515.2875 562.5875,533.625 567.175,548.35 " fill="none" id="Movement-backto-DualMovement" style="stroke:#A80036;stroke-width:1.25;"/><polygon fill="none" points="543.025,500.225,543.95,473.75,559.7375,495.025,543.025,500.225" style="stroke:#A80036;stroke-width:1.25;"/><!--MD5=[88f2e2291555f21143e81e756510c9ea]
reverse link Piece to Queen--><path codeLine="30" d="M226.9875,621.1125 C197.15,641.4 161.875,665.3625 134.9375,683.6625 " fill="none" id="Piece-backto-Queen" style="stroke:#A80036;stroke-width:1.25;"/><polygon fill="none" points="222.4375,613.625,248.0375,606.8125,232.275,628.1,222.4375,613.625" style="stroke:#A80036;stroke-width:1.25;"/><!--MD5=[ac1942a4293051845601190278ace43b]
reverse link Piece to Simple--><path codeLine="31" d="M262.7875,631.3625 C254.3,649 245.1125,668.1 237.775,683.35 " fill="none" id="Piece-backto-Simple" style="stroke:#A80036;stroke-width:1.25;"/><polygon fill="none" points="254.9375,627.4875,273.6625,608.75,270.7125,635.075,254.9375,627.4875" style="stroke:#A80036;stroke-width:1.25;"/><!--MD5=[9b21db52be6bd54a2485f122e5129e10]
reverse link Square to Coordinate--><path codeLine="32" d="M441.05,623.0875 C452.4,642.8125 465.55,665.675 475.725,683.35 " fill="none" id="Square-backto-Coordinate" style="stroke:#A80036;stroke-width:1.25;"/><polygon fill="#A80036" points="432.8,608.75,432.2117,617.7447,440.2882,621.7472,440.8765,612.7525,432.8,608.75" style="stroke:#A80036;stroke-width:1.25;"/><!--MD5=[d3043616e51943dcf3ad62bd090e5bf2]
@startuml
class Checkers
class Board
class Turn
class Player
class Piece
class Coordinate
class Square
class Movement
class SimpleMovement
class DualMovement
class Color
class Goal
class RemoveAllRivalPieces

Checkers *- - Board
Checkers *- - "2" Turn
Turn *- - "2" Player
Player o- - Goal
Goal <|- - RemoveAllRivalPieces
Goal ..> Piece
Player *- - "20" Piece
Board *- - "40" Piece
Board *- - "8x8" Square
Piece *- -> Color
Player ..> Movement
Movement ..> Piece
Movement ..> Square
Movement <|- - SimpleMovement
Movement <|- - DualMovement
Piece <|- - Queen
Piece <|- - Simple
Square *- - Coordinate

@enduml

PlantUML version 1.2021.00(Sun Jan 10 11:25:05 CET 2021)
(GPL source distribution)
Java Runtime: OpenJDK Runtime Environment
JVM: OpenJDK 64-Bit Server VM
Default Encoding: Cp1252
Language: en
Country: GB
--></g></svg>