<?xml version="1.0" encoding="UTF-8" standalone="no"?><svg xmlns="http://www.w3.org/2000/svg" xmlns:xlink="http://www.w3.org/1999/xlink" contentScriptType="application/ecmascript" contentStyleType="text/css" height="885px" preserveAspectRatio="none" style="width:1253px;height:885px;" version="1.1" viewBox="0 0 1253 885" width="1253.75px" zoomAndPan="magnify"><defs><filter height="300%" id="f1n52hnp0hqudp" width="300%" x="-1" y="-1"><feGaussianBlur result="blurOut" stdDeviation="2.5"/><feColorMatrix in="blurOut" result="blurOut2" type="matrix" values="0 0 0 0 0 0 0 0 0 0 0 0 0 0 0 0 0 0 .4 0"/><feOffset dx="5.0" dy="5.0" in="blurOut2" result="blurOut3"/><feBlend in="SourceGraphic" in2="blurOut3" mode="normal"/></filter></defs><g><!--MD5=[3e81cc6ee7da4fa8b6adc12b329096f6]
cluster util--><polygon fill="#FFFFFF" filter="url(#f1n52hnp0hqudp)" points="1065,98.75,1100,98.75,1108.75,128.2617,1232.5,128.2617,1232.5,411.25,1065,411.25,1065,98.75" style="stroke:#000000;stroke-width:1.875;"/><line style="stroke:#000000;stroke-width:1.875;" x1="1065" x2="1108.75" y1="128.2617" y2="128.2617"/><text fill="#000000" font-family="sans-serif" font-size="17.5" font-weight="bold" lengthAdjust="spacing" textLength="27.5" x="1070" y="119.4165">util</text><!--MD5=[4b7a55d430ce43d42ce9ebad9e6b4010]
cluster console--><polygon fill="#FFFFFF" filter="url(#f1n52hnp0hqudp)" points="293.75,98.75,371.25,98.75,380,128.2617,1035,128.2617,1035,876.25,293.75,876.25,293.75,98.75" style="stroke:#000000;stroke-width:1.875;"/><line style="stroke:#000000;stroke-width:1.875;" x1="293.75" x2="380" y1="128.2617" y2="128.2617"/><text fill="#000000" font-family="sans-serif" font-size="17.5" font-weight="bold" lengthAdjust="spacing" textLength="70" x="298.75" y="119.4165">console</text><!--MD5=[f4e70ef68289585296b9045165e58692]
cluster controllers--><polygon fill="#FFFFFF" filter="url(#f1n52hnp0hqudp)" points="20,583.75,123.75,583.75,132.5,613.2617,253.75,613.2617,253.75,728.75,20,728.75,20,583.75" style="stroke:#000000;stroke-width:1.875;"/><line style="stroke:#000000;stroke-width:1.875;" x1="20" x2="132.5" y1="613.2617" y2="613.2617"/><text fill="#000000" font-family="sans-serif" font-size="17.5" font-weight="bold" lengthAdjust="spacing" textLength="96.25" x="25" y="604.4165">controllers</text><!--MD5=[e5a7c277e8ee939048e61555925ce23c]
class util.Command--><rect codeLine="3" fill="#FEFECE" filter="url(#f1n52hnp0hqudp)" height="111.8848" id="util.Command" style="stroke:#A80036;stroke-width:1.875;" width="127.5" x="1085" y="278.75"/><ellipse cx="1109.9375" cy="298.75" fill="#A9DCDF" rx="13.75" ry="13.75" style="stroke:#A80036;stroke-width:1.25;"/><path d="M1112.125,300.625 L1108.0039,300.625 L1107.457,301.875 L1107.457,301.875 L1108.043,301.875 L1108.6875,302.6563 L1108.6875,303.125 L1108.6875,303.5938 L1108.043,304.375 L1107.457,304.375 L1105.0938,304.375 L1104.332,304.375 L1103.6875,303.5938 L1103.6875,303.125 L1103.6875,302.6563 L1104.332,301.875 L1105.0938,301.875 L1107.9844,294.375 L1106.8906,294.375 L1105.582,294.375 L1104.9375,293.5938 L1104.9375,293.125 L1104.9375,292.6563 L1105.582,291.875 L1106.8906,291.875 L1111.4805,291.875 L1114.8398,301.875 L1115.543,301.875 L1115.543,301.875 L1116.1875,302.6563 L1116.1875,303.125 L1116.1875,303.5938 L1115.543,304.375 L1114.8398,304.375 L1112.4766,304.375 L1111.832,304.375 L1111.1875,303.5938 L1111.1875,303.125 L1111.1875,302.6563 L1111.832,301.875 L1112.4766,301.875 L1112.4766,301.875 L1112.125,300.625 Z M1111.4414,298.125 L1109.9375,293.6523 L1108.6484,298.125 L1111.4414,298.125 Z " fill="#000000"/><text fill="#000000" font-family="sans-serif" font-size="15" font-style="italic" lengthAdjust="spacing" textLength="73.75" x="1128.8125" y="304.8877">Command</text><line style="stroke:#A80036;stroke-width:1.875;" x1="1086.25" x2="1211.25" y1="318.75" y2="318.75"/><ellipse cx="1098.75" cy="332.5" fill="none" rx="3.75" ry="3.75" style="stroke:#038048;stroke-width:1.25;"/><text fill="#000000" font-family="sans-serif" font-size="13.75" lengthAdjust="spacing" textLength="65" x="1110" y="338.0237">title : string</text><line style="stroke:#A80036;stroke-width:1.875;" x1="1086.25" x2="1211.25" y1="346.0449" y2="346.0449"/><ellipse cx="1098.75" cy="359.7949" fill="#84BE84" rx="3.75" ry="3.75" style="stroke:#038048;stroke-width:1.25;"/><text fill="#000000" font-family="sans-serif" font-size="13.75" lengthAdjust="spacing" textLength="95" x="1110" y="365.3186">execute() : void</text><ellipse cx="1098.75" cy="377.0898" fill="#84BE84" rx="3.75" ry="3.75" style="stroke:#038048;stroke-width:1.25;"/><text fill="#000000" font-family="sans-serif" font-size="13.75" lengthAdjust="spacing" textLength="95" x="1110" y="382.6135">isActive() : void</text><!--MD5=[d4da32c90919bbbaea623f5fc75c83a5]
class util.Menu--><rect codeLine="14" fill="#FEFECE" filter="url(#f1n52hnp0hqudp)" height="60" id="util.Menu" style="stroke:#A80036;stroke-width:1.875;" width="77.5" x="1097.5" y="143.75"/><ellipse cx="1116.25" cy="163.75" fill="#A9DCDF" rx="13.75" ry="13.75" style="stroke:#A80036;stroke-width:1.25;"/><path d="M1118.4375,165.625 L1114.3164,165.625 L1113.7695,166.875 L1113.7695,166.875 L1114.3555,166.875 L1115,167.6563 L1115,168.125 L1115,168.5938 L1114.3555,169.375 L1113.7695,169.375 L1111.4063,169.375 L1110.6445,169.375 L1110,168.5938 L1110,168.125 L1110,167.6563 L1110.6445,166.875 L1111.4063,166.875 L1114.2969,159.375 L1113.2031,159.375 L1111.8945,159.375 L1111.25,158.5938 L1111.25,158.125 L1111.25,157.6563 L1111.8945,156.875 L1113.2031,156.875 L1117.793,156.875 L1121.1523,166.875 L1121.8555,166.875 L1121.8555,166.875 L1122.5,167.6563 L1122.5,168.125 L1122.5,168.5938 L1121.8555,169.375 L1121.1523,169.375 L1118.7891,169.375 L1118.1445,169.375 L1117.5,168.5938 L1117.5,168.125 L1117.5,167.6563 L1118.1445,166.875 L1118.7891,166.875 L1118.7891,166.875 L1118.4375,165.625 Z M1117.7539,163.125 L1116.25,158.6523 L1114.9609,163.125 L1117.7539,163.125 Z " fill="#000000"/><text fill="#000000" font-family="sans-serif" font-size="15" font-style="italic" lengthAdjust="spacing" textLength="37.5" x="1133.75" y="169.8877">Menu</text><line style="stroke:#A80036;stroke-width:1.875;" x1="1098.75" x2="1173.75" y1="183.75" y2="183.75"/><line style="stroke:#A80036;stroke-width:1.875;" x1="1098.75" x2="1173.75" y1="193.75" y2="193.75"/><!--MD5=[f47e1518d1340968461bc1ee4ecc7e30]
class console.Command--><rect codeLine="8" fill="#FEFECE" filter="url(#f1n52hnp0hqudp)" height="87.5293" id="console.Command" style="stroke:#A80036;stroke-width:1.875;" width="126.25" x="635.625" y="466.25"/><ellipse cx="654.375" cy="491.3672" fill="#A9DCDF" rx="13.75" ry="13.75" style="stroke:#A80036;stroke-width:1.25;"/><path d="M656.5625,493.2422 L652.4414,493.2422 L651.8945,494.4922 L651.8945,494.4922 L652.4805,494.4922 L653.125,495.2734 L653.125,495.7422 L653.125,496.2109 L652.4805,496.9922 L651.8945,496.9922 L649.5313,496.9922 L648.7695,496.9922 L648.125,496.2109 L648.125,495.7422 L648.125,495.2734 L648.7695,494.4922 L649.5313,494.4922 L652.4219,486.9922 L651.3281,486.9922 L650.0195,486.9922 L649.375,486.2109 L649.375,485.7422 L649.375,485.2734 L650.0195,484.4922 L651.3281,484.4922 L655.918,484.4922 L659.2773,494.4922 L659.9805,494.4922 L659.9805,494.4922 L660.625,495.2734 L660.625,495.7422 L660.625,496.2109 L659.9805,496.9922 L659.2773,496.9922 L656.9141,496.9922 L656.2695,496.9922 L655.625,496.2109 L655.625,495.7422 L655.625,495.2734 L656.2695,494.4922 L656.9141,494.4922 L656.9141,494.4922 L656.5625,493.2422 Z M655.8789,490.7422 L654.375,486.2695 L653.0859,490.7422 L655.8789,490.7422 Z " fill="#000000"/><text fill="#000000" font-family="sans-serif" font-size="15" font-style="italic" lengthAdjust="spacing" textLength="91.25" x="669.375" y="488.0713">«Command»</text><text fill="#000000" font-family="sans-serif" font-size="15" font-style="italic" lengthAdjust="spacing" textLength="73.75" x="678.125" y="506.9385">Command</text><line style="stroke:#A80036;stroke-width:1.875;" x1="636.875" x2="760.625" y1="516.4844" y2="516.4844"/><ellipse cx="649.375" cy="530.2344" fill="none" rx="3.75" ry="3.75" style="stroke:#038048;stroke-width:1.25;"/><text fill="#000000" font-family="sans-serif" font-size="13.75" lengthAdjust="spacing" textLength="82.5" x="660.625" y="535.7581">playController</text><line style="stroke:#A80036;stroke-width:1.875;" x1="636.875" x2="760.625" y1="543.7793" y2="543.7793"/><!--MD5=[2590d5a86661ee1cf97f802d7c1fa5ff]
class console.PlayCommand--><rect codeLine="11" fill="#FEFECE" filter="url(#f1n52hnp0hqudp)" height="70.2344" id="console.PlayCommand" style="stroke:#A80036;stroke-width:1.875;" width="188.75" x="360.625" y="633.75"/><ellipse cx="379.375" cy="658.8672" fill="#ADD1B2" rx="13.75" ry="13.75" style="stroke:#A80036;stroke-width:1.25;"/><path d="M381.875,654.4922 Q382.1289,653.8672 382.4219,653.5547 Q382.7148,653.2422 383.0469,653.2422 Q383.6328,653.2422 384.0039,653.5938 Q384.375,653.9453 384.375,654.7656 L384.375,656.7188 Q384.375,657.5391 384.0234,657.8906 Q383.6719,658.2422 383.125,658.2422 Q382.6367,658.2422 382.3242,658.0273 Q382.0117,657.8125 381.875,657.2461 Q381.8164,656.8555 381.6016,656.6406 Q381.2109,656.2305 380.5078,655.9961 Q379.8047,655.7422 379.1016,655.7422 Q378.2227,655.7422 377.4805,656.0938 Q376.7578,656.4453 376.1914,657.2266 Q375.625,658.0078 375.625,659.082 L375.625,660.2344 Q375.625,661.5234 376.6797,662.3828 Q377.7344,663.2422 379.6094,663.2422 Q380.7227,663.2422 381.5039,662.9883 Q381.9531,662.8516 382.4609,662.4023 Q382.793,662.1484 382.9688,662.0703 Q383.1445,661.9922 383.3594,661.9922 Q383.7695,661.9922 384.0625,662.3242 Q384.375,662.6367 384.375,663.0859 Q384.375,663.5156 383.9453,664.0234 Q383.3203,664.7656 382.3242,665.1758 Q381.0156,665.7422 379.4141,665.7422 Q377.5391,665.7422 376.0352,665 Q374.8242,664.4141 373.9648,663.1445 Q373.125,661.875 373.125,660.3711 L373.125,659.0039 Q373.125,657.4414 373.8672,656.0742 Q374.6289,654.707 375.9375,653.9844 Q377.2656,653.2422 378.75,653.2422 Q379.6484,653.2422 380.4297,653.5547 Q381.2109,653.8672 381.875,654.4922 Z " fill="#000000"/><text fill="#000000" font-family="sans-serif" font-size="15" font-style="italic" lengthAdjust="spacing" textLength="153.75" x="394.375" y="655.5713">«ConcreteCommand»</text><text fill="#000000" font-family="sans-serif" font-size="15" lengthAdjust="spacing" textLength="102.5" x="420" y="674.4385">PlayCommand</text><line style="stroke:#A80036;stroke-width:1.875;" x1="361.875" x2="548.125" y1="683.9844" y2="683.9844"/><line style="stroke:#A80036;stroke-width:1.875;" x1="361.875" x2="548.125" y1="693.9844" y2="693.9844"/><!--MD5=[146df7e43b731a7bcf0fc8dc5421dc5e]
class console.RedoCommand--><rect codeLine="12" fill="#FEFECE" filter="url(#f1n52hnp0hqudp)" height="70.2344" id="console.RedoCommand" style="stroke:#A80036;stroke-width:1.875;" width="188.75" x="593.125" y="633.75"/><ellipse cx="611.875" cy="658.8672" fill="#ADD1B2" rx="13.75" ry="13.75" style="stroke:#A80036;stroke-width:1.25;"/><path d="M614.375,654.4922 Q614.6289,653.8672 614.9219,653.5547 Q615.2148,653.2422 615.5469,653.2422 Q616.1328,653.2422 616.5039,653.5938 Q616.875,653.9453 616.875,654.7656 L616.875,656.7188 Q616.875,657.5391 616.5234,657.8906 Q616.1719,658.2422 615.625,658.2422 Q615.1367,658.2422 614.8242,658.0273 Q614.5117,657.8125 614.375,657.2461 Q614.3164,656.8555 614.1016,656.6406 Q613.7109,656.2305 613.0078,655.9961 Q612.3047,655.7422 611.6016,655.7422 Q610.7227,655.7422 609.9805,656.0938 Q609.2578,656.4453 608.6914,657.2266 Q608.125,658.0078 608.125,659.082 L608.125,660.2344 Q608.125,661.5234 609.1797,662.3828 Q610.2344,663.2422 612.1094,663.2422 Q613.2227,663.2422 614.0039,662.9883 Q614.4531,662.8516 614.9609,662.4023 Q615.293,662.1484 615.4688,662.0703 Q615.6445,661.9922 615.8594,661.9922 Q616.2695,661.9922 616.5625,662.3242 Q616.875,662.6367 616.875,663.0859 Q616.875,663.5156 616.4453,664.0234 Q615.8203,664.7656 614.8242,665.1758 Q613.5156,665.7422 611.9141,665.7422 Q610.0391,665.7422 608.5352,665 Q607.3242,664.4141 606.4648,663.1445 Q605.625,661.875 605.625,660.3711 L605.625,659.0039 Q605.625,657.4414 606.3672,656.0742 Q607.1289,654.707 608.4375,653.9844 Q609.7656,653.2422 611.25,653.2422 Q612.1484,653.2422 612.9297,653.5547 Q613.7109,653.8672 614.375,654.4922 Z " fill="#000000"/><text fill="#000000" font-family="sans-serif" font-size="15" font-style="italic" lengthAdjust="spacing" textLength="153.75" x="626.875" y="655.5713">«ConcreteCommand»</text><text fill="#000000" font-family="sans-serif" font-size="15" lengthAdjust="spacing" textLength="111.25" x="648.125" y="674.4385">RedoCommand</text><line style="stroke:#A80036;stroke-width:1.875;" x1="594.375" x2="780.625" y1="683.9844" y2="683.9844"/><line style="stroke:#A80036;stroke-width:1.875;" x1="594.375" x2="780.625" y1="693.9844" y2="693.9844"/><!--MD5=[72af7fa2215b92e6ec50a174978f4022]
class console.UndoCommand--><rect codeLine="13" fill="#FEFECE" filter="url(#f1n52hnp0hqudp)" height="70.2344" id="console.UndoCommand" style="stroke:#A80036;stroke-width:1.875;" width="188.75" x="825.625" y="633.75"/><ellipse cx="844.375" cy="658.8672" fill="#ADD1B2" rx="13.75" ry="13.75" style="stroke:#A80036;stroke-width:1.25;"/><path d="M846.875,654.4922 Q847.1289,653.8672 847.4219,653.5547 Q847.7148,653.2422 848.0469,653.2422 Q848.6328,653.2422 849.0039,653.5938 Q849.375,653.9453 849.375,654.7656 L849.375,656.7188 Q849.375,657.5391 849.0234,657.8906 Q848.6719,658.2422 848.125,658.2422 Q847.6367,658.2422 847.3242,658.0273 Q847.0117,657.8125 846.875,657.2461 Q846.8164,656.8555 846.6016,656.6406 Q846.2109,656.2305 845.5078,655.9961 Q844.8047,655.7422 844.1016,655.7422 Q843.2227,655.7422 842.4805,656.0938 Q841.7578,656.4453 841.1914,657.2266 Q840.625,658.0078 840.625,659.082 L840.625,660.2344 Q840.625,661.5234 841.6797,662.3828 Q842.7344,663.2422 844.6094,663.2422 Q845.7227,663.2422 846.5039,662.9883 Q846.9531,662.8516 847.4609,662.4023 Q847.793,662.1484 847.9688,662.0703 Q848.1445,661.9922 848.3594,661.9922 Q848.7695,661.9922 849.0625,662.3242 Q849.375,662.6367 849.375,663.0859 Q849.375,663.5156 848.9453,664.0234 Q848.3203,664.7656 847.3242,665.1758 Q846.0156,665.7422 844.4141,665.7422 Q842.5391,665.7422 841.0352,665 Q839.8242,664.4141 838.9648,663.1445 Q838.125,661.875 838.125,660.3711 L838.125,659.0039 Q838.125,657.4414 838.8672,656.0742 Q839.6289,654.707 840.9375,653.9844 Q842.2656,653.2422 843.75,653.2422 Q844.6484,653.2422 845.4297,653.5547 Q846.2109,653.8672 846.875,654.4922 Z " fill="#000000"/><text fill="#000000" font-family="sans-serif" font-size="15" font-style="italic" lengthAdjust="spacing" textLength="153.75" x="859.375" y="655.5713">«ConcreteCommand»</text><text fill="#000000" font-family="sans-serif" font-size="15" lengthAdjust="spacing" textLength="111.25" x="880.625" y="674.4385">UndoCommand</text><line style="stroke:#A80036;stroke-width:1.875;" x1="826.875" x2="1013.125" y1="683.9844" y2="683.9844"/><line style="stroke:#A80036;stroke-width:1.875;" x1="826.875" x2="1013.125" y1="693.9844" y2="693.9844"/><!--MD5=[e660269ede3f737d83ba04615749641e]
class console.PlayMenu--><rect codeLine="15" fill="#FEFECE" filter="url(#f1n52hnp0hqudp)" height="60" id="console.PlayMenu" style="stroke:#A80036;stroke-width:1.875;" width="106.25" x="805.625" y="480"/><ellipse cx="824.375" cy="500" fill="#ADD1B2" rx="13.75" ry="13.75" style="stroke:#A80036;stroke-width:1.25;"/><path d="M826.875,495.625 Q827.1289,495 827.4219,494.6875 Q827.7148,494.375 828.0469,494.375 Q828.6328,494.375 829.0039,494.7266 Q829.375,495.0781 829.375,495.8984 L829.375,497.8516 Q829.375,498.6719 829.0234,499.0234 Q828.6719,499.375 828.125,499.375 Q827.6367,499.375 827.3242,499.1602 Q827.0117,498.9453 826.875,498.3789 Q826.8164,497.9883 826.6016,497.7734 Q826.2109,497.3633 825.5078,497.1289 Q824.8047,496.875 824.1016,496.875 Q823.2227,496.875 822.4805,497.2266 Q821.7578,497.5781 821.1914,498.3594 Q820.625,499.1406 820.625,500.2148 L820.625,501.3672 Q820.625,502.6563 821.6797,503.5156 Q822.7344,504.375 824.6094,504.375 Q825.7227,504.375 826.5039,504.1211 Q826.9531,503.9844 827.4609,503.5352 Q827.793,503.2813 827.9688,503.2031 Q828.1445,503.125 828.3594,503.125 Q828.7695,503.125 829.0625,503.457 Q829.375,503.7695 829.375,504.2188 Q829.375,504.6484 828.9453,505.1563 Q828.3203,505.8984 827.3242,506.3086 Q826.0156,506.875 824.4141,506.875 Q822.5391,506.875 821.0352,506.1328 Q819.8242,505.5469 818.9648,504.2773 Q818.125,503.0078 818.125,501.5039 L818.125,500.1367 Q818.125,498.5742 818.8672,497.207 Q819.6289,495.8398 820.9375,495.1172 Q822.2656,494.375 823.75,494.375 Q824.6484,494.375 825.4297,494.6875 Q826.2109,495 826.875,495.625 Z " fill="#000000"/><text fill="#000000" font-family="sans-serif" font-size="15" lengthAdjust="spacing" textLength="66.25" x="841.875" y="506.1377">PlayMenu</text><line style="stroke:#A80036;stroke-width:1.875;" x1="806.875" x2="910.625" y1="520" y2="520"/><line style="stroke:#A80036;stroke-width:1.875;" x1="806.875" x2="910.625" y1="530" y2="530"/><!--MD5=[c08c92092cd50a6b0513ef7f6ed30784]
class console.GameView--><rect codeLine="16" fill="#FEFECE" filter="url(#f1n52hnp0hqudp)" height="77.2949" id="console.GameView" style="stroke:#A80036;stroke-width:1.875;" width="115" x="476.25" y="471.25"/><ellipse cx="495" cy="491.25" fill="#ADD1B2" rx="13.75" ry="13.75" style="stroke:#A80036;stroke-width:1.25;"/><path d="M497.5,486.875 Q497.7539,486.25 498.0469,485.9375 Q498.3398,485.625 498.6719,485.625 Q499.2578,485.625 499.6289,485.9766 Q500,486.3281 500,487.1484 L500,489.1016 Q500,489.9219 499.6484,490.2734 Q499.2969,490.625 498.75,490.625 Q498.2617,490.625 497.9492,490.4102 Q497.6367,490.1953 497.5,489.6289 Q497.4414,489.2383 497.2266,489.0234 Q496.8359,488.6133 496.1328,488.3789 Q495.4297,488.125 494.7266,488.125 Q493.8477,488.125 493.1055,488.4766 Q492.3828,488.8281 491.8164,489.6094 Q491.25,490.3906 491.25,491.4648 L491.25,492.6172 Q491.25,493.9063 492.3047,494.7656 Q493.3594,495.625 495.2344,495.625 Q496.3477,495.625 497.1289,495.3711 Q497.5781,495.2344 498.0859,494.7852 Q498.418,494.5313 498.5938,494.4531 Q498.7695,494.375 498.9844,494.375 Q499.3945,494.375 499.6875,494.707 Q500,495.0195 500,495.4688 Q500,495.8984 499.5703,496.4063 Q498.9453,497.1484 497.9492,497.5586 Q496.6406,498.125 495.0391,498.125 Q493.1641,498.125 491.6602,497.3828 Q490.4492,496.7969 489.5898,495.5273 Q488.75,494.2578 488.75,492.7539 L488.75,491.3867 Q488.75,489.8242 489.4922,488.457 Q490.2539,487.0898 491.5625,486.3672 Q492.8906,485.625 494.375,485.625 Q495.2734,485.625 496.0547,485.9375 Q496.8359,486.25 497.5,486.875 Z " fill="#000000"/><text fill="#000000" font-family="sans-serif" font-size="15" lengthAdjust="spacing" textLength="75" x="512.5" y="497.3877">GameView</text><line style="stroke:#A80036;stroke-width:1.875;" x1="477.5" x2="590" y1="511.25" y2="511.25"/><line style="stroke:#A80036;stroke-width:1.875;" x1="477.5" x2="590" y1="521.25" y2="521.25"/><ellipse cx="490" cy="535" fill="#84BE84" rx="3.75" ry="3.75" style="stroke:#038048;stroke-width:1.25;"/><text fill="#000000" font-family="sans-serif" font-size="13.75" lengthAdjust="spacing" textLength="77.5" x="501.25" y="540.5237">write() : void</text><!--MD5=[6be25d86f6e809fa320c4fa6a5a02d40]
class console.View--><rect codeLine="20" fill="#FEFECE" filter="url(#f1n52hnp0hqudp)" height="60" id="console.View" style="stroke:#A80036;stroke-width:1.875;" width="72.5" x="343.75" y="143.75"/><ellipse cx="362.5" cy="163.75" fill="#ADD1B2" rx="13.75" ry="13.75" style="stroke:#A80036;stroke-width:1.25;"/><path d="M365,159.375 Q365.2539,158.75 365.5469,158.4375 Q365.8398,158.125 366.1719,158.125 Q366.7578,158.125 367.1289,158.4766 Q367.5,158.8281 367.5,159.6484 L367.5,161.6016 Q367.5,162.4219 367.1484,162.7734 Q366.7969,163.125 366.25,163.125 Q365.7617,163.125 365.4492,162.9102 Q365.1367,162.6953 365,162.1289 Q364.9414,161.7383 364.7266,161.5234 Q364.3359,161.1133 363.6328,160.8789 Q362.9297,160.625 362.2266,160.625 Q361.3477,160.625 360.6055,160.9766 Q359.8828,161.3281 359.3164,162.1094 Q358.75,162.8906 358.75,163.9648 L358.75,165.1172 Q358.75,166.4063 359.8047,167.2656 Q360.8594,168.125 362.7344,168.125 Q363.8477,168.125 364.6289,167.8711 Q365.0781,167.7344 365.5859,167.2852 Q365.918,167.0313 366.0938,166.9531 Q366.2695,166.875 366.4844,166.875 Q366.8945,166.875 367.1875,167.207 Q367.5,167.5195 367.5,167.9688 Q367.5,168.3984 367.0703,168.9063 Q366.4453,169.6484 365.4492,170.0586 Q364.1406,170.625 362.5391,170.625 Q360.6641,170.625 359.1602,169.8828 Q357.9492,169.2969 357.0898,168.0273 Q356.25,166.7578 356.25,165.2539 L356.25,163.8867 Q356.25,162.3242 356.9922,160.957 Q357.7539,159.5898 359.0625,158.8672 Q360.3906,158.125 361.875,158.125 Q362.7734,158.125 363.5547,158.4375 Q364.3359,158.75 365,159.375 Z " fill="#000000"/><text fill="#000000" font-family="sans-serif" font-size="15" lengthAdjust="spacing" textLength="32.5" x="380" y="169.8877">View</text><line style="stroke:#A80036;stroke-width:1.875;" x1="345" x2="415" y1="183.75" y2="183.75"/><line style="stroke:#A80036;stroke-width:1.875;" x1="345" x2="415" y1="193.75" y2="193.75"/><!--MD5=[dce0e83bfd632e8bf981f475681f9e0b]
class console.PlayView--><rect codeLine="21" fill="#FEFECE" filter="url(#f1n52hnp0hqudp)" height="77.2949" id="console.PlayView" style="stroke:#A80036;stroke-width:1.875;" width="206.25" x="634.375" y="296.25"/><ellipse cx="701.5625" cy="316.25" fill="#ADD1B2" rx="13.75" ry="13.75" style="stroke:#A80036;stroke-width:1.25;"/><path d="M704.0625,311.875 Q704.3164,311.25 704.6094,310.9375 Q704.9023,310.625 705.2344,310.625 Q705.8203,310.625 706.1914,310.9766 Q706.5625,311.3281 706.5625,312.1484 L706.5625,314.1016 Q706.5625,314.9219 706.2109,315.2734 Q705.8594,315.625 705.3125,315.625 Q704.8242,315.625 704.5117,315.4102 Q704.1992,315.1953 704.0625,314.6289 Q704.0039,314.2383 703.7891,314.0234 Q703.3984,313.6133 702.6953,313.3789 Q701.9922,313.125 701.2891,313.125 Q700.4102,313.125 699.668,313.4766 Q698.9453,313.8281 698.3789,314.6094 Q697.8125,315.3906 697.8125,316.4648 L697.8125,317.6172 Q697.8125,318.9063 698.8672,319.7656 Q699.9219,320.625 701.7969,320.625 Q702.9102,320.625 703.6914,320.3711 Q704.1406,320.2344 704.6484,319.7852 Q704.9805,319.5313 705.1563,319.4531 Q705.332,319.375 705.5469,319.375 Q705.957,319.375 706.25,319.707 Q706.5625,320.0195 706.5625,320.4688 Q706.5625,320.8984 706.1328,321.4063 Q705.5078,322.1484 704.5117,322.5586 Q703.2031,323.125 701.6016,323.125 Q699.7266,323.125 698.2227,322.3828 Q697.0117,321.7969 696.1523,320.5273 Q695.3125,319.2578 695.3125,317.7539 L695.3125,316.3867 Q695.3125,314.8242 696.0547,313.457 Q696.8164,312.0898 698.125,311.3672 Q699.4531,310.625 700.9375,310.625 Q701.8359,310.625 702.6172,310.9375 Q703.3984,311.25 704.0625,311.875 Z " fill="#000000"/><text fill="#000000" font-family="sans-serif" font-size="15" lengthAdjust="spacing" textLength="61.25" x="727.1875" y="322.3877">PlayView</text><line style="stroke:#A80036;stroke-width:1.875;" x1="635.625" x2="839.375" y1="336.25" y2="336.25"/><line style="stroke:#A80036;stroke-width:1.875;" x1="635.625" x2="839.375" y1="346.25" y2="346.25"/><ellipse cx="648.125" cy="360" fill="#84BE84" rx="3.75" ry="3.75" style="stroke:#038048;stroke-width:1.25;"/><text fill="#000000" font-family="sans-serif" font-size="13.75" lengthAdjust="spacing" textLength="173.75" x="659.375" y="365.5237">interact(PlayController) : void</text><!--MD5=[f99eaa8488f4be096b11b5d890aac07a]
class console.CoordinateView--><rect codeLine="24" fill="#FEFECE" filter="url(#f1n52hnp0hqudp)" height="77.2949" id="console.CoordinateView" style="stroke:#A80036;stroke-width:1.875;" width="180" x="472.5" y="778.75"/><ellipse cx="505.3125" cy="798.75" fill="#ADD1B2" rx="13.75" ry="13.75" style="stroke:#A80036;stroke-width:1.25;"/><path d="M507.8125,794.375 Q508.0664,793.75 508.3594,793.4375 Q508.6523,793.125 508.9844,793.125 Q509.5703,793.125 509.9414,793.4766 Q510.3125,793.8281 510.3125,794.6484 L510.3125,796.6016 Q510.3125,797.4219 509.9609,797.7734 Q509.6094,798.125 509.0625,798.125 Q508.5742,798.125 508.2617,797.9102 Q507.9492,797.6953 507.8125,797.1289 Q507.7539,796.7383 507.5391,796.5234 Q507.1484,796.1133 506.4453,795.8789 Q505.7422,795.625 505.0391,795.625 Q504.1602,795.625 503.418,795.9766 Q502.6953,796.3281 502.1289,797.1094 Q501.5625,797.8906 501.5625,798.9648 L501.5625,800.1172 Q501.5625,801.4063 502.6172,802.2656 Q503.6719,803.125 505.5469,803.125 Q506.6602,803.125 507.4414,802.8711 Q507.8906,802.7344 508.3984,802.2852 Q508.7305,802.0313 508.9063,801.9531 Q509.082,801.875 509.2969,801.875 Q509.707,801.875 510,802.207 Q510.3125,802.5195 510.3125,802.9688 Q510.3125,803.3984 509.8828,803.9063 Q509.2578,804.6484 508.2617,805.0586 Q506.9531,805.625 505.3516,805.625 Q503.4766,805.625 501.9727,804.8828 Q500.7617,804.2969 499.9023,803.0273 Q499.0625,801.7578 499.0625,800.2539 L499.0625,798.8867 Q499.0625,797.3242 499.8047,795.957 Q500.5664,794.5898 501.875,793.8672 Q503.2031,793.125 504.6875,793.125 Q505.5859,793.125 506.3672,793.4375 Q507.1484,793.75 507.8125,794.375 Z " fill="#000000"/><text fill="#000000" font-family="sans-serif" font-size="15" lengthAdjust="spacing" textLength="108.75" x="525.9375" y="804.8877">CoordinateView</text><line style="stroke:#A80036;stroke-width:1.875;" x1="473.75" x2="651.25" y1="818.75" y2="818.75"/><line style="stroke:#A80036;stroke-width:1.875;" x1="473.75" x2="651.25" y1="828.75" y2="828.75"/><ellipse cx="486.25" cy="842.5" fill="#84BE84" rx="3.75" ry="3.75" style="stroke:#038048;stroke-width:1.25;"/><text fill="#000000" font-family="sans-serif" font-size="13.75" lengthAdjust="spacing" textLength="147.5" x="497.5" y="848.0237">read : Coordinate(string)</text><!--MD5=[af1bb1148f8c42ef1dd72a63a9e2ce4e]
class console.TokenView--><rect codeLine="27" fill="#FEFECE" filter="url(#f1n52hnp0hqudp)" height="77.2949" id="console.TokenView" style="stroke:#A80036;stroke-width:1.875;" width="115" x="313.75" y="778.75"/><ellipse cx="332.5" cy="798.75" fill="#ADD1B2" rx="13.75" ry="13.75" style="stroke:#A80036;stroke-width:1.25;"/><path d="M335,794.375 Q335.2539,793.75 335.5469,793.4375 Q335.8398,793.125 336.1719,793.125 Q336.7578,793.125 337.1289,793.4766 Q337.5,793.8281 337.5,794.6484 L337.5,796.6016 Q337.5,797.4219 337.1484,797.7734 Q336.7969,798.125 336.25,798.125 Q335.7617,798.125 335.4492,797.9102 Q335.1367,797.6953 335,797.1289 Q334.9414,796.7383 334.7266,796.5234 Q334.3359,796.1133 333.6328,795.8789 Q332.9297,795.625 332.2266,795.625 Q331.3477,795.625 330.6055,795.9766 Q329.8828,796.3281 329.3164,797.1094 Q328.75,797.8906 328.75,798.9648 L328.75,800.1172 Q328.75,801.4063 329.8047,802.2656 Q330.8594,803.125 332.7344,803.125 Q333.8477,803.125 334.6289,802.8711 Q335.0781,802.7344 335.5859,802.2852 Q335.918,802.0313 336.0938,801.9531 Q336.2695,801.875 336.4844,801.875 Q336.8945,801.875 337.1875,802.207 Q337.5,802.5195 337.5,802.9688 Q337.5,803.3984 337.0703,803.9063 Q336.4453,804.6484 335.4492,805.0586 Q334.1406,805.625 332.5391,805.625 Q330.6641,805.625 329.1602,804.8828 Q327.9492,804.2969 327.0898,803.0273 Q326.25,801.7578 326.25,800.2539 L326.25,798.8867 Q326.25,797.3242 326.9922,795.957 Q327.7539,794.5898 329.0625,793.8672 Q330.3906,793.125 331.875,793.125 Q332.7734,793.125 333.5547,793.4375 Q334.3359,793.75 335,794.375 Z " fill="#000000"/><text fill="#000000" font-family="sans-serif" font-size="15" lengthAdjust="spacing" textLength="75" x="350" y="804.8877">TokenView</text><line style="stroke:#A80036;stroke-width:1.875;" x1="315" x2="427.5" y1="818.75" y2="818.75"/><line style="stroke:#A80036;stroke-width:1.875;" x1="315" x2="427.5" y1="828.75" y2="828.75"/><ellipse cx="327.5" cy="842.5" fill="#84BE84" rx="3.75" ry="3.75" style="stroke:#038048;stroke-width:1.25;"/><text fill="#000000" font-family="sans-serif" font-size="13.75" lengthAdjust="spacing" textLength="77.5" x="338.75" y="848.0237">write() : void</text><!--MD5=[baddb9ee739b9f3f9ae823f0d02bafd5]
class console.ResumeView--><rect fill="#FEFECE" filter="url(#f1n52hnp0hqudp)" height="60" id="console.ResumeView" style="stroke:#A80036;stroke-width:1.875;" width="132.5" x="313.75" y="305"/><ellipse cx="332.5" cy="325" fill="#ADD1B2" rx="13.75" ry="13.75" style="stroke:#A80036;stroke-width:1.25;"/><path d="M335,320.625 Q335.2539,320 335.5469,319.6875 Q335.8398,319.375 336.1719,319.375 Q336.7578,319.375 337.1289,319.7266 Q337.5,320.0781 337.5,320.8984 L337.5,322.8516 Q337.5,323.6719 337.1484,324.0234 Q336.7969,324.375 336.25,324.375 Q335.7617,324.375 335.4492,324.1602 Q335.1367,323.9453 335,323.3789 Q334.9414,322.9883 334.7266,322.7734 Q334.3359,322.3633 333.6328,322.1289 Q332.9297,321.875 332.2266,321.875 Q331.3477,321.875 330.6055,322.2266 Q329.8828,322.5781 329.3164,323.3594 Q328.75,324.1406 328.75,325.2148 L328.75,326.3672 Q328.75,327.6563 329.8047,328.5156 Q330.8594,329.375 332.7344,329.375 Q333.8477,329.375 334.6289,329.1211 Q335.0781,328.9844 335.5859,328.5352 Q335.918,328.2813 336.0938,328.2031 Q336.2695,328.125 336.4844,328.125 Q336.8945,328.125 337.1875,328.457 Q337.5,328.7695 337.5,329.2188 Q337.5,329.6484 337.0703,330.1563 Q336.4453,330.8984 335.4492,331.3086 Q334.1406,331.875 332.5391,331.875 Q330.6641,331.875 329.1602,331.1328 Q327.9492,330.5469 327.0898,329.2773 Q326.25,328.0078 326.25,326.5039 L326.25,325.1367 Q326.25,323.5742 326.9922,322.207 Q327.7539,320.8398 329.0625,320.1172 Q330.3906,319.375 331.875,319.375 Q332.7734,319.375 333.5547,319.6875 Q334.3359,320 335,320.625 Z " fill="#000000"/><text fill="#000000" font-family="sans-serif" font-size="15" lengthAdjust="spacing" textLength="92.5" x="350" y="331.1377">ResumeView</text><line style="stroke:#A80036;stroke-width:1.875;" x1="315" x2="445" y1="345" y2="345"/><line style="stroke:#A80036;stroke-width:1.875;" x1="315" x2="445" y1="355" y2="355"/><!--MD5=[4d0076323e8007d043fb1baea2a8f9b4]
class console.StarView--><rect fill="#FEFECE" filter="url(#f1n52hnp0hqudp)" height="60" id="console.StarView" style="stroke:#A80036;stroke-width:1.875;" width="100" x="490" y="305"/><ellipse cx="508.75" cy="325" fill="#ADD1B2" rx="13.75" ry="13.75" style="stroke:#A80036;stroke-width:1.25;"/><path d="M511.25,320.625 Q511.5039,320 511.7969,319.6875 Q512.0898,319.375 512.4219,319.375 Q513.0078,319.375 513.3789,319.7266 Q513.75,320.0781 513.75,320.8984 L513.75,322.8516 Q513.75,323.6719 513.3984,324.0234 Q513.0469,324.375 512.5,324.375 Q512.0117,324.375 511.6992,324.1602 Q511.3867,323.9453 511.25,323.3789 Q511.1914,322.9883 510.9766,322.7734 Q510.5859,322.3633 509.8828,322.1289 Q509.1797,321.875 508.4766,321.875 Q507.5977,321.875 506.8555,322.2266 Q506.1328,322.5781 505.5664,323.3594 Q505,324.1406 505,325.2148 L505,326.3672 Q505,327.6563 506.0547,328.5156 Q507.1094,329.375 508.9844,329.375 Q510.0977,329.375 510.8789,329.1211 Q511.3281,328.9844 511.8359,328.5352 Q512.168,328.2813 512.3438,328.2031 Q512.5195,328.125 512.7344,328.125 Q513.1445,328.125 513.4375,328.457 Q513.75,328.7695 513.75,329.2188 Q513.75,329.6484 513.3203,330.1563 Q512.6953,330.8984 511.6992,331.3086 Q510.3906,331.875 508.7891,331.875 Q506.9141,331.875 505.4102,331.1328 Q504.1992,330.5469 503.3398,329.2773 Q502.5,328.0078 502.5,326.5039 L502.5,325.1367 Q502.5,323.5742 503.2422,322.207 Q504.0039,320.8398 505.3125,320.1172 Q506.6406,319.375 508.125,319.375 Q509.0234,319.375 509.8047,319.6875 Q510.5859,320 511.25,320.625 Z " fill="#000000"/><text fill="#000000" font-family="sans-serif" font-size="15" lengthAdjust="spacing" textLength="60" x="526.25" y="331.1377">StarView</text><line style="stroke:#A80036;stroke-width:1.875;" x1="491.25" x2="588.75" y1="345" y2="345"/><line style="stroke:#A80036;stroke-width:1.875;" x1="491.25" x2="588.75" y1="355" y2="355"/><!--MD5=[b7368b96cff72c7c0c9eacae26c2c235]
class controllers.ControllerVisitor--><rect fill="#FEFECE" filter="url(#f1n52hnp0hqudp)" height="60" id="controllers.ControllerVisitor" style="stroke:#A80036;stroke-width:1.875;" width="150" x="50" y="638.75"/><ellipse cx="68.75" cy="658.75" fill="#ADD1B2" rx="13.75" ry="13.75" style="stroke:#A80036;stroke-width:1.25;"/><path d="M71.25,654.375 Q71.5039,653.75 71.7969,653.4375 Q72.0898,653.125 72.4219,653.125 Q73.0078,653.125 73.3789,653.4766 Q73.75,653.8281 73.75,654.6484 L73.75,656.6016 Q73.75,657.4219 73.3984,657.7734 Q73.0469,658.125 72.5,658.125 Q72.0117,658.125 71.6992,657.9102 Q71.3867,657.6953 71.25,657.1289 Q71.1914,656.7383 70.9766,656.5234 Q70.5859,656.1133 69.8828,655.8789 Q69.1797,655.625 68.4766,655.625 Q67.5977,655.625 66.8555,655.9766 Q66.1328,656.3281 65.5664,657.1094 Q65,657.8906 65,658.9648 L65,660.1172 Q65,661.4063 66.0547,662.2656 Q67.1094,663.125 68.9844,663.125 Q70.0977,663.125 70.8789,662.8711 Q71.3281,662.7344 71.8359,662.2852 Q72.168,662.0313 72.3438,661.9531 Q72.5195,661.875 72.7344,661.875 Q73.1445,661.875 73.4375,662.207 Q73.75,662.5195 73.75,662.9688 Q73.75,663.3984 73.3203,663.9063 Q72.6953,664.6484 71.6992,665.0586 Q70.3906,665.625 68.7891,665.625 Q66.9141,665.625 65.4102,664.8828 Q64.1992,664.2969 63.3398,663.0273 Q62.5,661.7578 62.5,660.2539 L62.5,658.8867 Q62.5,657.3242 63.2422,655.957 Q64.0039,654.5898 65.3125,653.8672 Q66.6406,653.125 68.125,653.125 Q69.0234,653.125 69.8047,653.4375 Q70.5859,653.75 71.25,654.375 Z " fill="#000000"/><text fill="#000000" font-family="sans-serif" font-size="15" lengthAdjust="spacing" textLength="110" x="86.25" y="664.8877">ControllerVisitor</text><line style="stroke:#A80036;stroke-width:1.875;" x1="51.25" x2="198.75" y1="678.75" y2="678.75"/><line style="stroke:#A80036;stroke-width:1.875;" x1="51.25" x2="198.75" y1="688.75" y2="688.75"/><!--MD5=[c045e12321b83266d36d22b9096c24ea]
class View--><rect codeLine="19" fill="#FEFECE" filter="url(#f1n52hnp0hqudp)" height="60" id="View" style="stroke:#A80036;stroke-width:1.875;" width="72.5" x="343.75" y="8.75"/><ellipse cx="362.5" cy="28.75" fill="#A9DCDF" rx="13.75" ry="13.75" style="stroke:#A80036;stroke-width:1.25;"/><path d="M364.6875,30.625 L360.5664,30.625 L360.0195,31.875 L360.0195,31.875 L360.6055,31.875 L361.25,32.6563 L361.25,33.125 L361.25,33.5938 L360.6055,34.375 L360.0195,34.375 L357.6563,34.375 L356.8945,34.375 L356.25,33.5938 L356.25,33.125 L356.25,32.6563 L356.8945,31.875 L357.6563,31.875 L360.5469,24.375 L359.4531,24.375 L358.1445,24.375 L357.5,23.5938 L357.5,23.125 L357.5,22.6563 L358.1445,21.875 L359.4531,21.875 L364.043,21.875 L367.4023,31.875 L368.1055,31.875 L368.1055,31.875 L368.75,32.6563 L368.75,33.125 L368.75,33.5938 L368.1055,34.375 L367.4023,34.375 L365.0391,34.375 L364.3945,34.375 L363.75,33.5938 L363.75,33.125 L363.75,32.6563 L364.3945,31.875 L365.0391,31.875 L365.0391,31.875 L364.6875,30.625 Z M364.0039,28.125 L362.5,23.6523 L361.2109,28.125 L364.0039,28.125 Z " fill="#000000"/><text fill="#000000" font-family="sans-serif" font-size="15" font-style="italic" lengthAdjust="spacing" textLength="32.5" x="380" y="34.8877">View</text><line style="stroke:#A80036;stroke-width:1.875;" x1="345" x2="415" y1="48.75" y2="48.75"/><line style="stroke:#A80036;stroke-width:1.875;" x1="345" x2="415" y1="58.75" y2="58.75"/><!--MD5=[6024645f732363bede09ae08ef1fa86a]
reverse link console.View to console.PlayView--><path codeLine="33" d="M431.5,197.875 C489.3375,223.55 584.0625,265.6125 652.8125,296.15 " fill="none" id="console.View-backto-console.PlayView" style="stroke:#A80036;stroke-width:1.25;"/><polygon fill="#A80036" points="416.575,191.2375,421.4038,198.8488,430.2869,197.3189,425.4581,189.7075,416.575,191.2375" style="stroke:#A80036;stroke-width:1.25;"/><!--MD5=[e5e4a71c168cb0a06b4ac92c4bb9dba7]
link console.View to controllers--><path codeLine="34" d="M348.2625,203.8 C328.8875,223.1375 305.225,250.225 291.25,278.75 C253.5438,355.6813 241.4469,451.0563 238.8844,528.0828 C238.2437,547.3395 238.199,565.4493 238.499,581.8375 C238.5084,582.3497 238.5181,582.8601 238.5282,583.3689 " fill="none" id="console.View-to-controllers" style="stroke:#808080;stroke-width:1.25;stroke-dasharray:7.0,7.0;"/><polygon fill="#808080" points="238.5282,583.3689,243.3052,572.0224,238.4048,577.1201,233.3071,572.2197,238.5282,583.3689" style="stroke:#808080;stroke-width:1.25;"/><!--MD5=[8b26830fbb2cead6ef3461874e5302b5]
link console.Command to controllers--><path codeLine="35" d="M635.525,536.875 C621.15,543.6375 605.9875,550.075 591.25,553.75 C556.875,562.325 302.2125,544.4375 272.5,563.75 C267.1781,567.2109 262.4072,571.4092 258.173,576.1086 C256.056,578.4583 254.073,580.9334 252.2225,583.5042 " fill="none" id="console.Command-to-controllers" style="stroke:#808080;stroke-width:1.25;stroke-dasharray:7.0,7.0;"/><polygon fill="#808080" points="252.2225,583.5042,262.8529,577.2947,255.8738,578.4316,254.7369,571.4526,252.2225,583.5042" style="stroke:#808080;stroke-width:1.25;"/><!--MD5=[8b26830fbb2cead6ef3461874e5302b5]
link console.Command to controllers--><path codeLine="59" d="M635.4875,553.625 C635.325,553.675 635.1625,553.7125 635,553.75 C600.625,562.325 345.9625,544.4375 316.25,563.75 C294.9625,577.5938 282.4906,603.2344 272.5797,625.5609 C267.6242,636.7242 263.309,647.059 258.8521,654.6764 C257.7379,656.5807 256.6149,658.3152 255.4708,659.8504 C255.1847,660.2342 254.8974,660.6055 254.6085,660.9639 C254.4641,661.1431 254.3193,661.3191 254.1741,661.4918 C254.1015,661.5781 254.0288,661.6636 253.956,661.7483 " fill="none" id="console.Command-to-controllers-1" style="stroke:#808080;stroke-width:1.25;stroke-dasharray:7.0,7.0;"/><polygon fill="#808080" points="253.956,661.7483,265.0813,656.4767,258.0303,657.0089,257.4981,649.9578,253.956,661.7483" style="stroke:#808080;stroke-width:1.25;"/><!--MD5=[70eb7bb63723e7ce40932cc51ce08c06]
link console.GameView to controllers--><path codeLine="36" d="M476.1875,532.725 C458.625,540.75 439.525,549.05 421.25,553.75 C389.1625,562 299.95,545.2 272.5,563.75 C267.2406,567.3047 262.5168,571.5734 258.3171,576.3245 C257.2672,577.5122 256.25,578.7301 255.2655,579.9745 C254.7732,580.5967 254.289,581.2256 253.813,581.8606 C253.575,582.1781 253.339,582.4972 253.1051,582.8177 C252.9881,582.978 252.8716,583.1386 252.7556,583.2996 " fill="none" id="console.GameView-to-controllers" style="stroke:#808080;stroke-width:1.25;stroke-dasharray:7.0,7.0;"/><polygon fill="#808080" points="252.7556,583.2996,263.3877,577.093,256.4083,578.2281,255.2732,571.2487,252.7556,583.2996" style="stroke:#808080;stroke-width:1.25;"/><!--MD5=[70eb7bb63723e7ce40932cc51ce08c06]
link console.GameView to controllers--><path codeLine="52" d="M480.8125,548.9125 C475.5625,550.7625 470.25,552.4 465,553.75 C432.9125,562 343.7,545.2 316.25,563.75 C295.2125,577.9688 282.7438,603.6125 272.7719,625.8469 C267.7859,636.9641 263.4242,647.2289 258.9277,654.7871 C257.8036,656.6767 256.6711,658.397 255.5182,659.9193 C254.9418,660.6804 254.3603,661.392 253.7723,662.0504 " fill="none" id="console.GameView-to-controllers-1" style="stroke:#808080;stroke-width:1.25;stroke-dasharray:7.0,7.0;"/><polygon fill="#808080" points="253.7723,662.0504,264.9953,656.9901,257.9355,657.3889,257.5368,650.329,253.7723,662.0504" style="stroke:#808080;stroke-width:1.25;"/><!--MD5=[db55cad54db2ae331c5cb79488e95ce1]
link console.PlayMenu to controllers--><path codeLine="37" d="M816.325,540.05 C806.075,545.6375 794.8625,550.7 783.75,553.75 C757.5,560.9625 316.6625,549.0375 293.75,563.75 C283.1531,570.5594 274.7438,580.3008 268.0869,591.1188 C264.7585,596.5277 261.8682,602.2059 259.3617,607.9212 C258.1084,610.7789 256.9511,613.6458 255.8829,616.4931 C255.3489,617.9167 254.8371,619.3355 254.3467,620.7456 C254.2241,621.0982 254.1029,621.4502 253.9829,621.8016 C253.923,621.9773 253.8633,622.1529 253.804,622.3283 " fill="none" id="console.PlayMenu-to-controllers" style="stroke:#808080;stroke-width:1.25;stroke-dasharray:7.0,7.0;"/><polygon fill="#808080" points="253.804,622.3283,262.1437,613.2722,255.8057,616.4075,252.6704,610.0695,253.804,622.3283" style="stroke:#808080;stroke-width:1.25;"/><!--MD5=[d73c19221e2d0784f7d23db7c12b4ad5]
link console.PlayView to controllers--><path codeLine="38" d="M689.275,373.9625 C666.5875,390.3 638.5625,408.55 611.25,421.25 C545.2375,451.9625 515.8,428.175 453.75,466.25 C408.5125,494 419.7125,529.5125 372.5,553.75 C341.1125,569.8625 322.3875,543.1375 293.75,563.75 C273.6313,578.2375 261.2719,603.0313 253.875,624.7484 " fill="none" id="console.PlayView-to-controllers" style="stroke:#808080;stroke-width:1.25;stroke-dasharray:7.0,7.0;"/><polygon fill="#808080" points="253.875,624.7484,262.2351,615.7113,255.8901,618.8322,252.7691,612.4871,253.875,624.7484" style="stroke:#808080;stroke-width:1.25;"/><!--MD5=[86f16ea0476c592087ef084a2e5dbff0]
link console.ResumeView to controllers--><path codeLine="39" d="M354.625,365.2 C333.925,390.2875 305.4625,428.4125 288.75,466.25 C279.6344,486.8813 272.2797,509.5461 266.3713,531.9941 C263.4171,543.2182 260.8245,554.388 258.5541,565.2223 C257.4189,570.6395 256.3643,575.9728 255.3853,581.187 C254.8958,583.7941 254.4252,586.3715 253.9729,588.9147 C253.9164,589.2326 253.8601,589.55 253.8041,589.8668 " fill="none" id="console.ResumeView-to-controllers" style="stroke:#808080;stroke-width:1.25;stroke-dasharray:7.0,7.0;"/><polygon fill="#808080" points="253.8041,589.8668,260.6849,579.6581,254.8913,583.7121,250.8373,577.9186,253.8041,589.8668" style="stroke:#808080;stroke-width:1.25;"/><!--MD5=[fb9bf3ca1d546787533c8d62c493fc7f]
link console.StarView to controllers--><path codeLine="40" d="M519.9375,365.25 C506.5875,383.025 487.8125,405.35 467.5,421.25 C432.2875,448.8125 412.7625,438.75 377.5,466.25 C332.45,501.3875 325.025,515.95 293.75,563.75 C280.175,584.5 268.0188,609.4906 259.0922,629.7453 C257.9764,632.2771 256.911,634.735 255.8997,637.1013 C255.394,638.2844 254.9018,639.4447 254.4236,640.5799 C254.304,640.8637 254.1853,641.1459 254.0675,641.4266 C254.0086,641.5669 253.9499,641.7068 253.8915,641.8463 " fill="none" id="console.StarView-to-controllers" style="stroke:#808080;stroke-width:1.25;stroke-dasharray:7.0,7.0;"/><polygon fill="#808080" points="253.8915,641.8463,262.8511,633.4031,256.3071,636.082,253.6282,629.5381,253.8915,641.8463" style="stroke:#808080;stroke-width:1.25;"/><!--MD5=[9cae26b436ab289358b677433f13101a]
reverse link console.View to console.ResumeView--><path codeLine="41" d="M380,220.4375 C380,247.5875 380,281.2625 380,304.8125 " fill="none" id="console.View-backto-console.ResumeView" style="stroke:#A80036;stroke-width:1.25;"/><polygon fill="#A80036" points="380,204.1125,375,211.6125,380,219.1125,385,211.6125,380,204.1125" style="stroke:#A80036;stroke-width:1.25;"/><!--MD5=[7757bf433a0a3d37c38997569383489a]
reverse link console.View to console.StarView--><path codeLine="42" d="M421.1875,215.875 C449.2625,243.725 485.75,279.925 510.8375,304.8125 " fill="none" id="console.View-backto-console.StarView" style="stroke:#A80036;stroke-width:1.25;"/><polygon fill="#A80036" points="409.35,204.1125,411.1521,212.9444,419.9977,214.6778,418.1956,205.8459,409.35,204.1125" style="stroke:#A80036;stroke-width:1.25;"/><!--MD5=[4b82dc47a1625c0c7113180940e42a71]
reverse link util.Command to console.Command--><path codeLine="43" d="M1064.7125,405.5 C1055.0625,411.4625 1045.0625,416.8875 1035,421.25 C930.9375,466.4125 891.425,430.5125 783.75,466.25 C776.55,468.6375 769.1875,471.55 761.9625,474.7 " fill="none" id="util.Command-backto-console.Command" style="stroke:#A80036;stroke-width:1.25;"/><polygon fill="none" points="1060.2,397.9875,1085.825,391.2875,1069.975,412.5,1060.2,397.9875" style="stroke:#A80036;stroke-width:1.25;"/><!--MD5=[dc260382e50451743b993ed65acd6e50]
reverse link console.Command to console.PlayCommand--><path codeLine="44" d="M611.5125,552.5875 C590.9625,558.5 583.975,557.075 571.25,563.75 C537.7125,581.35 506.0875,610.725 484.3125,633.7375 " fill="none" id="console.Command-backto-console.PlayCommand" style="stroke:#A80036;stroke-width:1.25;"/><polygon fill="none" points="608.8875,544.2375,635.375,544.4125,614.5625,560.8,608.8875,544.2375" style="stroke:#A80036;stroke-width:1.25;"/><!--MD5=[a6a44242f52cefacb024453dce7e184a]
reverse link console.Command to console.RedoCommand--><path codeLine="45" d="M693.875,579.0125 C692.525,597.7625 691.1125,617.3125 689.9625,633.2625 " fill="none" id="console.Command-backto-console.RedoCommand" style="stroke:#A80036;stroke-width:1.25;"/><polygon fill="none" points="685.15,578.25,695.675,553.95,702.6125,579.5125,685.15,578.25" style="stroke:#A80036;stroke-width:1.25;"/><!--MD5=[a8a12b90e37cb9dc0515418b844c2e12]
reverse link console.Command to console.UndoCommand--><path codeLine="46" d="M784.6125,554.1625 C795.925,559.825 803.7,563.725 803.75,563.75 C833.975,584.25 864.65,611.9875 886.8875,633.6125 " fill="none" id="console.Command-backto-console.UndoCommand" style="stroke:#A80036;stroke-width:1.25;"/><polygon fill="none" points="780.625,561.9625,762.175,542.95,788.45,546.3125,780.625,561.9625" style="stroke:#A80036;stroke-width:1.25;"/><!--MD5=[03e57a290b7eb09d2711a244801818fe]
reverse link util.Menu to console.PlayMenu--><path codeLine="47" d="M1095.9625,223.4625 C1037.4625,293.8125 930.8125,422.075 883.0375,479.55 " fill="none" id="util.Menu-backto-console.PlayMenu" style="stroke:#A80036;stroke-width:1.25;"/><polygon fill="none" points="1089.4,217.6625,1112.1125,204.0375,1102.85,228.85,1089.4,217.6625" style="stroke:#A80036;stroke-width:1.25;"/><!--MD5=[2f464f8a371091edcd573a62f1385fe4]
reverse link View to console.View--><path codeLine="48" d="M380,93.775 C380,110.725 380,128.8 380,143.35 " fill="none" id="View-backto-console.View" style="stroke:#A80036;stroke-width:1.25;"/><polygon fill="none" points="371.25,93.75,380,68.75,388.75,93.75,371.25,93.75" style="stroke:#A80036;stroke-width:1.25;"/><!--MD5=[0a8255956346f515f8598ee1824b8861]
reverse link util.Menu to util.Command--><path codeLine="49" d="M1139.825,220.4125 C1141.25,238.5125 1142.9,259.5125 1144.4,278.475 " fill="none" id="util.Menu-backto-util.Command" style="stroke:#A80036;stroke-width:1.25;"/><polygon fill="#A80036" points="1138.5375,204.1125,1134.1381,211.9798,1139.7081,219.0668,1144.1076,211.1994,1138.5375,204.1125" style="stroke:#A80036;stroke-width:1.25;"/><!--MD5=[a520631aaec9bb525e5ff55070ecaffd]
reverse link console.PlayView to console.PlayMenu--><path codeLine="50" d="M773.7125,387.775 C794.8,417.7625 820.6,454.475 838.2125,479.5375 " fill="none" id="console.PlayView-backto-console.PlayMenu" style="stroke:#A80036;stroke-width:1.25;"/><polygon fill="#A80036" points="764.1125,374.1,764.3376,383.1111,772.742,386.3691,772.517,377.358,764.1125,374.1" style="stroke:#A80036;stroke-width:1.25;"/><!--MD5=[182c18cbdcee53944b4e15fcb48ddd82]
reverse link console.PlayView to console.GameView--><path codeLine="51" d="M680.3625,384.625 C648.0875,411.95 608.325,445.6125 578.3625,470.9875 " fill="none" id="console.PlayView-backto-console.GameView" style="stroke:#A80036;stroke-width:1.25;"/><polygon fill="#A80036" points="692.7875,374.1,683.8323,375.1271,681.3361,383.7884,690.2913,382.7613,692.7875,374.1" style="stroke:#A80036;stroke-width:1.25;"/><!--MD5=[a6c53852c098a2013a4572c3451cac4c]
link console.PlayCommand to console.CoordinateView--><path codeLine="53" d="M479.9375,703.925 C495.025,724.4625 514.425,750.85 530.625,772.8875 " fill="none" id="console.PlayCommand-to-console.CoordinateView" style="stroke:#808080;stroke-width:1.25;stroke-dasharray:7.0,7.0;"/><polygon fill="#808080" points="534.675,778.4,532.021,766.3784,530.9651,773.3702,523.9733,772.3143,534.675,778.4" style="stroke:#808080;stroke-width:1.25;"/><!--MD5=[ad9221dc22777c24a559c7d0af2c638b]
link console.GameView to console.TokenView--><path codeLine="54" d="M475.9625,541.725 C465.0875,546.425 453.625,550.7125 442.5,553.75 C420.15,559.8375 354.325,546.6 338.75,563.75 C287,620.725 320.7,717.0375 347.5375,772.8 " fill="none" id="console.GameView-to-console.TokenView" style="stroke:#808080;stroke-width:1.25;stroke-dasharray:7.0,7.0;"/><polygon fill="#808080" points="350.4375,778.725,349.9883,766.4221,347.6924,773.1101,341.0045,770.8142,350.4375,778.725" style="stroke:#808080;stroke-width:1.25;"/><!--MD5=[d3ac75aff81cbfc31b34bd6456e45ef3]
link console.PlayCommand to console.TokenView--><path codeLine="55" d="M435.575,703.925 C423.8125,724.4625 408.7,750.85 396.075,772.8875 " fill="none" id="console.PlayCommand-to-console.TokenView" style="stroke:#808080;stroke-width:1.25;stroke-dasharray:7.0,7.0;"/><polygon fill="#808080" points="392.925,778.4,402.8633,771.1341,396.0374,772.9801,394.1914,766.1542,392.925,778.4" style="stroke:#808080;stroke-width:1.25;"/><!--MD5=[4a2dae033d10607f8a9087f7fdc8f8ea]
reverse link console.PlayMenu to console.PlayCommand--><path codeLine="56" d="M801.1125,547.3375 C795.4,549.8625 789.55,552.075 783.75,553.75 C738.3375,566.875 615.0125,545.875 571.25,563.75 C535.4375,578.375 503.3625,609.0375 482.025,633.25 " fill="none" id="console.PlayMenu-backto-console.PlayCommand" style="stroke:#A80036;stroke-width:1.25;"/><polygon fill="#A80036" points="815.8625,540.05,806.9238,538.888,802.4133,546.6922,811.352,547.8542,815.8625,540.05" style="stroke:#A80036;stroke-width:1.25;"/><!--MD5=[a9b7dd58954832aeea7adb4d4e2cab67]
reverse link console.PlayMenu to console.RedoCommand--><path codeLine="57" d="M814.7,551.4375 C786.75,576.95 750.975,609.575 724.5,633.7375 " fill="none" id="console.PlayMenu-backto-console.RedoCommand" style="stroke:#A80036;stroke-width:1.25;"/><polygon fill="#A80036" points="826.9375,540.275,818.028,541.6427,815.8638,550.3929,824.7733,549.0252,826.9375,540.275" style="stroke:#A80036;stroke-width:1.25;"/><!--MD5=[96f6aaf4bc4ab8861cb38cb3505be07c]
reverse link console.PlayMenu to console.UndoCommand--><path codeLine="58" d="M876.15,555.6375 C885.875,580.45 897.8125,610.8875 906.7625,633.7375 " fill="none" id="console.PlayMenu-backto-console.UndoCommand" style="stroke:#A80036;stroke-width:1.25;"/><polygon fill="#A80036" points="870.125,540.275,868.2069,549.0824,875.5991,554.2405,877.5172,545.433,870.125,540.275" style="stroke:#A80036;stroke-width:1.25;"/><!--MD5=[ee4155a482096d89b7e5ff9c23b61dec]
reverse link controllers.ControllerVisitor to console.View--><path codeLine="60" d="M130.075,613.425 C139.825,533.7375 167.1125,382.9625 240,278.75 C266.525,240.825 311.35,211.175 343.125,193.45 " fill="none" id="controllers.ControllerVisitor-backto-console.View" style="stroke:#A80036;stroke-width:1.25;"/><polygon fill="none" points="138.75,614.5625,127.3125,638.4625,121.3625,612.65,138.75,614.5625" style="stroke:#A80036;stroke-width:1.25;"/><!--MD5=[87f53db79172bafd3a6ae910e639b07d]
@startuml
'https://plantuml.com/class-diagram

abstract util.Command {
+ title : string
+ execute() : void
+ isActive() : void
}
abstract console.Command <<Command>> {
    + playController
}
class console.PlayCommand <<ConcreteCommand>>
class console.RedoCommand <<ConcreteCommand>>
class console.UndoCommand <<ConcreteCommand>>
abstract util.Menu
class console.PlayMenu
class console.GameView {
+ write() : void
}
abstract View
class console.View
class console.PlayView {
+ interact(PlayController) : void
}
class console.CoordinateView {
 + read : Coordinate(string)
}
class console.TokenView {
    + write() : void
}
package controllers {
}

console.View *- - console.PlayView
console.View .[#Gray].> controllers
console.Command .[#Gray].> controllers
console.GameView .[#Gray].> controllers
console.PlayMenu .[#Gray].> controllers
console.PlayView .[#Gray].> controllers
console.ResumeView .[#Gray].> controllers
console.StarView .[#Gray].> controllers
console.View *- - console.ResumeView
console.View *- - console.StarView
util.Command <|- - console.Command
console.Command <|- - console.PlayCommand
console.Command <|- - console.RedoCommand
console.Command <|- - console.UndoCommand
util.Menu <|- - console.PlayMenu
View <|- - console.View
util.Menu *- - util.Command
console.PlayView *- - console.PlayMenu
console.PlayView *- - console.GameView
console.GameView .[#Gray].> controllers
console.PlayCommand .[#Gray].> console.CoordinateView
console.GameView .[#Gray].> console.TokenView
console.PlayCommand .[#Gray].> console.TokenView
console.PlayMenu *- - console.PlayCommand
console.PlayMenu *- - console.RedoCommand
console.PlayMenu *- - console.UndoCommand
console.Command .[#Gray].> controllers
controllers.ControllerVisitor <|- - console.View
@enduml

@startuml

abstract util.Command {
+ title : string
+ execute() : void
+ isActive() : void
}
abstract console.Command <<Command>> {
    + playController
}
class console.PlayCommand <<ConcreteCommand>>
class console.RedoCommand <<ConcreteCommand>>
class console.UndoCommand <<ConcreteCommand>>
abstract util.Menu
class console.PlayMenu
class console.GameView {
+ write() : void
}
abstract View
class console.View
class console.PlayView {
+ interact(PlayController) : void
}
class console.CoordinateView {
 + read : Coordinate(string)
}
class console.TokenView {
    + write() : void
}
package controllers {
}

console.View *- - console.PlayView
console.View .[#Gray].> controllers
console.Command .[#Gray].> controllers
console.GameView .[#Gray].> controllers
console.PlayMenu .[#Gray].> controllers
console.PlayView .[#Gray].> controllers
console.ResumeView .[#Gray].> controllers
console.StarView .[#Gray].> controllers
console.View *- - console.ResumeView
console.View *- - console.StarView
util.Command <|- - console.Command
console.Command <|- - console.PlayCommand
console.Command <|- - console.RedoCommand
console.Command <|- - console.UndoCommand
util.Menu <|- - console.PlayMenu
View <|- - console.View
util.Menu *- - util.Command
console.PlayView *- - console.PlayMenu
console.PlayView *- - console.GameView
console.GameView .[#Gray].> controllers
console.PlayCommand .[#Gray].> console.CoordinateView
console.GameView .[#Gray].> console.TokenView
console.PlayCommand .[#Gray].> console.TokenView
console.PlayMenu *- - console.PlayCommand
console.PlayMenu *- - console.RedoCommand
console.PlayMenu *- - console.UndoCommand
console.Command .[#Gray].> controllers
controllers.ControllerVisitor <|- - console.View
@enduml

PlantUML version 1.2021.00(Sun Jan 10 11:25:05 CET 2021)
(GPL source distribution)
Java Runtime: OpenJDK Runtime Environment
JVM: OpenJDK 64-Bit Server VM
Default Encoding: Cp1252
Language: en
Country: GB
--></g></svg>